<svg width="1512" height="880" viewBox="0 0 1512 880" fill="none" xmlns="http://www.w3.org/2000/svg">
<path d="M1209.51 738.226C1209.51 740.699 1207.51 742.695 1205.06 742.695C1207.52 742.695 1209.51 744.699 1209.51 747.164C1209.51 744.691 1211.51 742.695 1213.97 742.695C1211.51 742.695 1209.51 740.699 1209.51 738.226Z" fill="#FFEEA4"/>
<path d="M959.083 462.588C959.083 465.061 957.087 467.057 954.632 467.057C957.095 467.057 959.083 469.062 959.083 471.526C959.083 469.053 961.079 467.057 963.534 467.057C961.079 467.057 959.083 465.053 959.083 462.588Z" fill="#FFEEA4"/>
<path d="M1328.5 651.325C1328.5 653.798 1326.51 655.794 1324.05 655.794C1326.51 655.794 1328.5 657.798 1328.5 660.263C1328.5 657.79 1330.5 655.794 1332.95 655.794C1330.5 655.794 1328.5 653.798 1328.5 651.325Z" fill="#FFEEA4"/>
<path d="M1407.55 749.192C1407.55 751.665 1405.56 753.661 1403.1 753.661C1405.57 753.661 1407.55 755.665 1407.55 758.13C1407.55 755.657 1409.55 753.661 1412 753.661C1409.55 753.669 1407.55 751.665 1407.55 749.192Z" fill="#FFEEA4"/>
<path d="M937.262 652.084C937.262 657.685 932.738 662.218 927.168 662.218C932.746 662.218 937.262 666.76 937.262 672.353C937.262 666.752 941.785 662.218 947.355 662.218C941.777 662.218 937.262 657.685 937.262 652.084Z" fill="#FFEEA4"/>
<path d="M1431.68 463.679C1431.68 466.152 1429.69 468.148 1427.23 468.148C1429.69 468.148 1431.68 470.153 1431.68 472.618C1431.68 470.145 1433.68 468.148 1436.13 468.148C1433.68 468.148 1431.68 466.144 1431.68 463.679Z" fill="#FFEEA4"/>
<path d="M1395.07 652.715C1395.07 655.188 1393.07 657.184 1390.62 657.184C1393.08 657.184 1395.07 659.188 1395.07 661.653C1395.07 659.18 1397.06 657.184 1399.52 657.184C1397.06 657.184 1395.07 655.179 1395.07 652.715Z" fill="#EF5B5B"/>
<path d="M1375.57 727.995C1375.57 732.682 1371.78 736.488 1367.11 736.488C1371.78 736.488 1375.57 740.287 1375.57 744.982C1375.57 740.295 1379.35 736.488 1384.03 736.488C1379.35 736.48 1375.57 732.682 1375.57 727.995Z" fill="#EF5B5B"/>
<path d="M887.937 588.83C887.937 591.303 885.941 593.299 883.486 593.299C885.949 593.299 887.937 595.303 887.937 597.768C887.937 595.295 889.934 593.299 892.389 593.299C889.934 593.307 887.937 591.303 887.937 588.83Z" fill="#EF5B5B"/>
<path d="M1370.32 426.027C1370.32 430.092 1367.04 433.382 1363 433.382C1367.04 433.382 1370.32 436.679 1370.32 440.736C1370.32 436.671 1373.6 433.382 1377.64 433.382C1373.6 433.39 1370.32 430.092 1370.32 426.027Z" fill="#EF5B5B"/>
<path d="M1155.53 757.257C1155.53 758.494 1154.53 759.496 1153.3 759.496C1154.53 759.496 1155.53 760.499 1155.53 761.735C1155.53 760.499 1156.53 759.496 1157.76 759.496C1156.53 759.496 1155.53 758.494 1155.53 757.257Z" fill="#EF5B5B"/>
<path d="M1260.24 502.858C1260.24 504.095 1259.25 505.097 1258.01 505.097C1259.25 505.097 1260.24 506.099 1260.24 507.336C1260.24 506.099 1261.24 505.097 1262.47 505.097C1261.24 505.097 1260.24 504.095 1260.24 502.858Z" fill="#EF5B5B"/>
<path d="M1043.98 477.895C1043.98 479.947 1042.32 481.612 1040.27 481.612C1042.32 481.612 1043.98 483.277 1043.98 485.33C1043.98 483.277 1045.63 481.612 1047.68 481.612C1045.63 481.612 1043.98 479.947 1043.98 477.895Z" fill="#EF5B5B"/>
<path d="M922.521 428.856C922.521 433.826 918.513 437.85 913.562 437.85C918.513 437.85 922.521 441.875 922.521 446.845C922.521 441.875 926.53 437.85 931.48 437.85C926.53 437.858 922.521 433.826 922.521 428.856Z" fill="#EF5B5B"/>
<path d="M986.113 624.3C986.113 627.274 983.714 629.69 980.744 629.69C983.706 629.69 986.113 632.099 986.113 635.081C986.113 632.107 988.512 629.69 991.482 629.69C988.52 629.69 986.113 627.274 986.113 624.3Z" fill="#EF5B5B"/>
<path d="M887.937 552.043C887.937 554.516 885.941 556.512 883.486 556.512C885.949 556.512 887.937 558.516 887.937 560.989C887.937 558.516 889.934 556.512 892.389 556.512C889.934 556.52 887.937 554.516 887.937 552.043Z" fill="#FFEEA4"/>
<path d="M1361.36 557.595C1361.36 563.01 1356.99 567.398 1351.6 567.398C1356.99 567.398 1361.36 571.786 1361.36 577.201C1361.36 571.786 1365.73 567.398 1371.12 567.398C1365.74 567.398 1361.36 563.01 1361.36 557.595Z" fill="#FFEEA4"/>
<path d="M1298.07 489.774C1298.07 492.247 1296.07 494.244 1293.62 494.244C1296.08 494.244 1298.07 496.248 1298.07 498.713C1298.07 496.24 1300.07 494.244 1302.52 494.244C1300.07 494.252 1298.07 492.247 1298.07 489.774Z" fill="#FFEEA4"/>
<path d="M1010.21 581.306C1010.21 583.779 1008.21 585.775 1005.76 585.775C1008.22 585.775 1010.21 587.779 1010.21 590.244C1010.21 587.771 1012.21 585.775 1014.66 585.775C1012.21 585.775 1010.21 583.771 1010.21 581.306Z" fill="#FFEEA4"/>
<path d="M1100.05 523.418C1100.05 525.107 1098.69 526.473 1097 526.473C1098.69 526.473 1100.05 527.839 1100.05 529.529C1100.05 527.839 1101.41 526.473 1103.09 526.473C1101.41 526.473 1100.05 525.107 1100.05 523.418Z" fill="#FFEEA4"/>
<path d="M1086.77 444.122C1086.77 447.904 1083.72 450.975 1079.95 450.975C1083.72 450.975 1086.77 454.046 1086.77 457.828C1086.77 454.046 1089.83 450.975 1093.6 450.975C1089.83 450.975 1086.77 447.904 1086.77 444.122Z" fill="#FFEEA4"/>
<path d="M1247.65 409.985C1247.65 412.458 1245.65 414.454 1243.2 414.454C1245.66 414.454 1247.65 416.458 1247.65 418.923C1247.65 416.45 1249.65 414.454 1252.11 414.454C1249.65 414.454 1247.65 412.458 1247.65 409.985Z" fill="#FFEEA4"/>
<path d="M997.224 134.348C997.224 136.821 995.227 138.817 992.772 138.817C995.235 138.817 997.224 140.821 997.224 143.286C997.224 140.813 999.22 138.817 1001.67 138.817C999.22 138.817 997.224 136.813 997.224 134.348Z" fill="#FFEEA4"/>
<path d="M1366.65 323.084C1366.65 325.557 1364.65 327.554 1362.19 327.554C1364.66 327.554 1366.65 329.558 1366.65 332.023C1366.65 329.55 1368.64 327.554 1371.1 327.554C1368.64 327.554 1366.65 325.557 1366.65 323.084Z" fill="#FFEEA4"/>
<path d="M1445.7 420.952C1445.7 423.425 1443.7 425.421 1441.24 425.421C1443.71 425.421 1445.7 427.425 1445.7 429.89C1445.7 427.417 1447.69 425.421 1450.15 425.421C1447.69 425.429 1445.7 423.425 1445.7 420.952Z" fill="#FFEEA4"/>
<path d="M975.406 323.844C975.406 329.445 970.882 333.978 965.312 333.978C970.891 333.978 975.406 338.52 975.406 344.113C975.406 338.512 979.93 333.978 985.5 333.978C979.922 333.978 975.406 329.445 975.406 323.844Z" fill="#FFEEA4"/>
<path d="M1469.83 135.439C1469.83 137.912 1467.83 139.908 1465.38 139.908C1467.84 139.908 1469.83 141.912 1469.83 144.377C1469.83 141.904 1471.82 139.908 1474.28 139.908C1471.82 139.908 1469.83 137.904 1469.83 135.439Z" fill="#FFEEA4"/>
<path d="M1433.21 324.474C1433.21 326.947 1431.21 328.944 1428.76 328.944C1431.22 328.944 1433.21 330.948 1433.21 333.413C1433.21 330.94 1435.21 328.944 1437.66 328.944C1435.2 328.944 1433.21 326.939 1433.21 324.474Z" fill="#EF5B5B"/>
<path d="M1413.71 399.754C1413.71 404.441 1409.93 408.248 1405.25 408.248C1409.92 408.248 1413.71 412.046 1413.71 416.741C1413.71 412.054 1417.49 408.248 1422.17 408.248C1417.49 408.24 1413.71 404.441 1413.71 399.754Z" fill="#EF5B5B"/>
<path d="M926.079 260.59C926.079 263.063 924.083 265.059 921.628 265.059C924.091 265.059 926.079 267.063 926.079 269.528C926.079 267.055 928.075 265.059 930.53 265.059C928.075 265.067 926.079 263.063 926.079 260.59Z" fill="#EF5B5B"/>
<path d="M1408.46 97.787C1408.46 101.852 1405.18 105.141 1401.14 105.141C1405.19 105.141 1408.46 108.438 1408.46 112.495C1408.46 108.43 1411.75 105.141 1415.79 105.141C1411.75 105.149 1408.46 101.852 1408.46 97.787Z" fill="#EF5B5B"/>
<path d="M1193.67 429.017C1193.67 430.254 1192.68 431.256 1191.44 431.256C1192.68 431.256 1193.67 432.258 1193.67 433.495C1193.67 432.258 1194.67 431.256 1195.9 431.256C1194.67 431.256 1193.67 430.254 1193.67 429.017Z" fill="#EF5B5B"/>
<path d="M1298.39 174.618C1298.39 175.855 1297.39 176.857 1296.16 176.857C1297.39 176.857 1298.39 177.859 1298.39 179.096C1298.39 177.859 1299.38 176.857 1300.62 176.857C1299.38 176.857 1298.39 175.855 1298.39 174.618Z" fill="#EF5B5B"/>
<path d="M1082.12 149.654C1082.12 151.707 1080.46 153.372 1078.42 153.372C1080.46 153.372 1082.12 155.037 1082.12 157.089C1082.12 155.037 1083.78 153.372 1085.82 153.372C1083.78 153.372 1082.12 151.707 1082.12 149.654Z" fill="#EF5B5B"/>
<path d="M960.665 100.615C960.665 105.586 956.656 109.61 951.706 109.61C956.656 109.61 960.665 113.635 960.665 118.605C960.665 113.635 964.673 109.61 969.623 109.61C964.673 109.618 960.665 105.586 960.665 100.615Z" fill="#EF5B5B"/>
<path d="M1024.26 296.06C1024.26 299.034 1021.86 301.45 1018.89 301.45C1021.85 301.45 1024.26 303.858 1024.26 306.841C1024.26 303.867 1026.66 301.45 1029.63 301.45C1026.66 301.45 1024.26 299.034 1024.26 296.06Z" fill="#EF5B5B"/>
<path d="M926.079 223.803C926.079 226.275 924.083 228.272 921.628 228.272C924.091 228.272 926.079 230.276 926.079 232.749C926.079 230.276 928.075 228.272 930.53 228.272C928.075 228.28 926.079 226.275 926.079 223.803Z" fill="#FFEEA4"/>
<path d="M1399.5 229.354C1399.5 234.769 1395.13 239.157 1389.74 239.157C1395.13 239.157 1399.5 243.546 1399.5 248.96C1399.5 243.546 1403.87 239.157 1409.27 239.157C1403.88 239.157 1399.5 234.769 1399.5 229.354Z" fill="#FFEEA4"/>
<path d="M1336.21 161.534C1336.21 164.007 1334.21 166.003 1331.76 166.003C1334.22 166.003 1336.21 168.008 1336.21 170.472C1336.21 167.999 1338.21 166.003 1340.66 166.003C1338.21 166.011 1336.21 164.007 1336.21 161.534Z" fill="#FFEEA4"/>
<path d="M1048.35 253.066C1048.35 255.539 1046.36 257.535 1043.9 257.535C1046.36 257.535 1048.35 259.539 1048.35 262.004C1048.35 259.531 1050.35 257.535 1052.8 257.535C1050.35 257.535 1048.35 255.531 1048.35 253.066Z" fill="#FFEEA4"/>
<path d="M1138.19 195.178C1138.19 196.867 1136.83 198.233 1135.15 198.233C1136.83 198.233 1138.19 199.599 1138.19 201.288C1138.19 199.599 1139.55 198.233 1141.23 198.233C1139.55 198.233 1138.19 196.867 1138.19 195.178Z" fill="#FFEEA4"/>
<path d="M1124.92 115.882C1124.92 119.664 1121.86 122.735 1118.09 122.735C1121.86 122.735 1124.92 125.806 1124.92 129.588C1124.92 125.806 1127.98 122.735 1131.74 122.735C1127.98 122.735 1124.92 119.664 1124.92 115.882Z" fill="#FFEEA4"/>
<path d="M1019 186.427C1025.52 171.127 1018.46 153.413 1003.22 146.862C987.982 140.311 970.339 147.404 963.814 162.704C957.289 178.005 964.354 195.719 979.593 202.27C994.832 208.821 1012.47 201.728 1019 186.427Z" fill="#EF5B5B"/>
<path d="M1016.09 175.714C1016.71 162.038 1006.17 150.452 992.546 149.835C978.925 149.217 967.385 159.803 966.771 173.478C966.156 187.153 976.699 198.74 990.319 199.357C1003.94 199.975 1015.48 189.389 1016.09 175.714Z" fill="#F4BD31"/>
<path d="M988.7 185.857C977.657 183.182 970.163 173.452 969.817 162.582C968.762 164.489 967.941 166.566 967.41 168.789C964.215 182.091 972.368 195.482 985.625 198.69C998.874 201.899 1012.21 193.712 1015.41 180.402C1015.94 178.179 1016.15 175.957 1016.08 173.775C1010.83 183.287 999.735 188.524 988.7 185.857Z" fill="#EA902F"/>
<path d="M975.71 165.127C974.052 164.513 972.153 163.212 970.301 161.725C969.665 162.776 969.102 163.883 968.619 165.047C977.014 172.773 989.201 171.277 1001.56 174.373C1007.81 175.932 1012.62 175.197 1016.08 173.855C1016 171.1 1015.46 168.417 1014.52 165.903C1005.69 170.429 989.716 162.307 984.838 156.351C983.494 154.702 981.635 153.579 979.646 152.803C977.618 153.91 975.743 155.3 974.093 156.925C976.443 158.032 979.075 159.357 980.974 160.553C985.313 163.277 983.027 167.859 975.71 165.127Z" fill="#FFE269"/>
<path d="M1012.19 161.24C1011.72 160.505 1011.22 159.802 1010.68 159.115C1006.4 159.284 1000.65 158.307 994.242 153.943C992.101 152.48 990.242 151.154 988.632 149.95C987.803 150.047 986.974 150.185 986.169 150.354C990.958 154.767 1000.6 161.911 1012.19 161.24Z" fill="#FFE269"/>
<path d="M986.471 181.945C986.237 182.907 985.279 183.497 984.321 183.263C983.363 183.029 982.776 182.067 983.009 181.105C983.243 180.143 984.201 179.553 985.159 179.787C986.116 180.022 986.704 180.984 986.471 181.945Z" fill="#FFE269"/>
<path d="M1006.88 188.725C1006 192.378 1002.34 194.625 998.702 193.744C995.063 192.863 992.826 189.186 993.703 185.533C994.58 181.88 998.243 179.634 1001.88 180.515C1005.51 181.395 1007.75 185.073 1006.88 188.725Z" fill="#EA902F"/>
<path d="M1248.61 746.613C1272.15 746.613 1291.22 727.458 1291.22 703.829C1291.22 680.2 1272.15 661.046 1248.61 661.046C1225.08 661.046 1206 680.2 1206 703.829C1206 727.458 1225.08 746.613 1248.61 746.613Z" fill="#EF5B5B"/>
<path d="M1248.61 740.633C1268.86 740.633 1285.27 724.155 1285.27 703.829C1285.27 683.503 1268.86 667.026 1248.61 667.026C1228.37 667.026 1211.96 683.503 1211.96 703.829C1211.96 724.155 1228.37 740.633 1248.61 740.633Z" fill="#1C77B5"/>
<path d="M1249.97 719.33C1231.5 712.315 1221.98 691.933 1228.16 673.297C1222.06 677.411 1217.13 683.391 1214.32 690.81C1207.16 709.818 1216.71 731.064 1235.65 738.249C1254.58 745.441 1275.74 735.856 1282.89 716.841C1283.07 716.372 1283.22 715.903 1283.39 715.434C1273.87 721.851 1261.51 723.71 1249.97 719.33Z" fill="#20A39E"/>
<path d="M1243.66 656.013H1243.68C1243.68 656.013 1243.65 655.983 1243.66 656.013Z" fill="#C6619B"/>
<path d="M1261.81 717.002C1266.32 721.867 1272.3 724.696 1277.63 726.336C1278.11 725.714 1278.57 725.067 1279.01 724.413C1272.78 722.352 1265.18 717.931 1258.56 708.613C1244.36 688.62 1236.52 692.289 1230.02 680.611C1228.68 678.203 1227.6 676.126 1226.71 674.323C1224.93 675.657 1223.26 677.152 1221.74 678.809C1226.34 687.521 1237.17 707.062 1246.67 717.002C1253.17 723.815 1264.41 728.138 1273.66 730.716C1274.19 730.215 1274.72 729.698 1275.22 729.165C1265.98 726.344 1251.24 719.903 1243.7 706.27C1232.19 685.492 1251.45 705.841 1261.81 717.002Z" fill="#98D3E5"/>
<path d="M1285.27 704.662C1285.3 703.449 1285.27 702.245 1285.18 701.049C1279 697.736 1272.24 692.386 1265.46 683.86C1259.65 676.562 1255.39 671.172 1252.26 667.196C1250.59 667.026 1248.93 666.977 1247.28 667.034C1254.5 677.055 1270.04 696.863 1285.27 704.662Z" fill="#98D3E5"/>
<path d="M1249.85 740.616C1250.48 740.592 1251.1 740.56 1251.73 740.503C1244.7 736.915 1236.16 730.943 1229.75 721.342C1227.47 717.915 1221.04 707.514 1213.12 694.689C1211.74 700.055 1211.63 705.502 1212.61 710.69C1217.95 718.998 1225.49 727.548 1235.85 733.303C1241.57 736.479 1246.16 738.855 1249.85 740.616Z" fill="#98D3E5"/>
<path d="M1234.35 715.644C1228.64 703.263 1222.81 690.883 1218.79 682.429C1217.71 683.949 1216.74 685.557 1215.88 687.262C1219.88 697.461 1224.3 713.058 1236.38 723.928C1244.64 731.371 1252.78 736.026 1259.64 738.927C1260.89 738.531 1262.13 738.063 1263.34 737.529C1252.72 734.078 1239.85 727.581 1234.35 715.644Z" fill="#98D3E5"/>
<path d="M1269.51 701.251C1253.09 683.585 1243.37 672.885 1239.19 668.262C1237.09 668.828 1235.03 669.579 1233.06 670.509C1238.53 674.113 1244.73 679.124 1247.67 684.781C1252.77 694.6 1272.1 712.985 1282.86 716.954C1282.88 716.921 1282.88 716.889 1282.9 716.848C1283.27 715.862 1283.59 714.868 1283.88 713.866C1280.61 712.008 1276 708.217 1269.51 701.251Z" fill="#98D3E5"/>
<path d="M963.612 424.656C965.729 423.452 968.458 424.116 969.722 426.138C968.466 424.108 969.158 421.492 971.267 420.28C969.15 421.484 966.421 420.821 965.158 418.799C966.413 420.828 965.721 423.452 963.612 424.656Z" fill="#FFEEA4"/>
<path d="M855.991 765.659C858.108 764.455 860.837 765.119 862.1 767.141C860.845 765.111 861.537 762.495 863.646 761.284C861.529 762.487 858.8 761.824 857.537 759.802C858.8 761.831 858.108 764.455 855.991 765.659Z" fill="#FFEEA4"/>
<path d="M828.35 369.139C830.467 367.935 833.195 368.599 834.459 370.621C833.203 368.591 833.895 365.975 836.004 364.764C833.887 365.967 831.159 365.304 829.895 363.282C831.151 365.311 830.458 367.935 828.35 369.139Z" fill="#FFEEA4"/>
<path d="M871.613 256.192C873.73 254.988 876.459 255.652 877.723 257.674C876.467 255.644 877.159 253.028 879.268 251.816C877.151 253.02 874.422 252.357 873.159 250.335C874.414 252.364 873.722 254.98 871.613 256.192Z" fill="#FFEEA4"/>
<path d="M1029.3 690.996C1034.09 688.257 1040.28 689.761 1043.13 694.353C1040.27 689.761 1041.84 683.819 1046.63 681.087C1041.84 683.827 1035.65 682.322 1032.8 677.73C1035.65 682.314 1034.09 688.257 1029.3 690.996Z" fill="#FFEEA4"/>
<path d="M614.975 375.9C617.092 374.696 619.82 375.359 621.084 377.381C619.828 375.352 620.52 372.736 622.629 371.524C620.512 372.728 617.784 372.064 616.52 370.042C617.784 372.072 617.092 374.688 614.975 375.9Z" fill="#FFEEA4"/>
<path d="M795.462 313.646C797.579 312.442 800.307 313.106 801.571 315.127C800.316 313.098 801.008 310.482 803.117 309.27C801 310.474 798.271 309.81 797.007 307.788C798.263 309.818 797.571 312.434 795.462 313.646Z" fill="#EF5B5B"/>
<path d="M869.844 292.902C873.852 290.61 879.044 291.868 881.434 295.719C879.044 291.876 880.356 286.898 884.372 284.606C880.364 286.898 875.172 285.64 872.782 281.789C875.172 285.632 873.86 290.61 869.844 292.902Z" fill="#EF5B5B"/>
<path d="M1000.42 762.534C1002.54 761.33 1005.27 761.994 1006.53 764.015C1005.28 761.986 1005.97 759.37 1008.08 758.158C1005.96 759.362 1003.23 758.698 1001.97 756.677C1003.23 758.706 1002.54 761.33 1000.42 762.534Z" fill="#EF5B5B"/>
<path d="M614.188 444.844C617.666 442.86 622.165 443.949 624.234 447.282C622.165 443.949 623.3 439.642 626.777 437.651C623.3 439.635 618.801 438.547 616.732 435.213C618.801 438.547 617.658 442.853 614.188 444.844Z" fill="#EF5B5B"/>
<path d="M1007.53 459.816C1008.59 459.214 1009.96 459.546 1010.58 460.557C1009.96 459.546 1010.3 458.233 1011.36 457.631C1010.3 458.233 1008.93 457.902 1008.31 456.891C1008.93 457.902 1008.59 459.214 1007.53 459.816Z" fill="#EF5B5B"/>
<path d="M736.271 497.938C737.325 497.336 738.694 497.668 739.322 498.679C738.694 497.668 739.04 496.356 740.094 495.754C739.04 496.356 737.671 496.024 737.043 495.013C737.679 496.024 737.333 497.336 736.271 497.938Z" fill="#EF5B5B"/>
<path d="M825.629 688.257C827.384 687.253 829.661 687.801 830.708 689.491C829.661 687.809 830.233 685.625 831.996 684.622C830.241 685.625 827.963 685.077 826.917 683.387C827.963 685.069 827.384 687.253 825.629 688.257Z" fill="#EF5B5B"/>
<path d="M845.856 812.255C850.106 809.824 855.604 811.159 858.139 815.234C855.604 811.159 856.996 805.889 861.246 803.458C856.996 805.889 851.499 804.554 848.963 800.479C851.499 804.554 850.106 809.824 845.856 812.255Z" fill="#EF5B5B"/>
<path d="M980.511 664.341C983.054 662.89 986.346 663.685 987.868 666.124C986.354 663.685 987.183 660.529 989.727 659.07C987.183 660.521 983.891 659.726 982.37 657.288C983.891 659.726 983.062 662.883 980.511 664.341Z" fill="#EF5B5B"/>
<path d="M968.95 780.522C971.067 779.318 973.796 779.982 975.059 782.004C973.804 779.974 974.496 777.358 976.605 776.147C974.488 777.351 971.759 776.687 970.496 774.665C971.759 776.695 971.067 779.311 968.95 780.522Z" fill="#FFEEA4"/>
<path d="M731.323 387.9C735.96 385.253 741.948 386.703 744.709 391.149C741.948 386.703 743.469 380.962 748.098 378.315C743.461 380.962 737.473 379.511 734.712 375.066C737.481 379.511 735.96 385.253 731.323 387.9Z" fill="#FFEEA4"/>
<path d="M705.721 473.181C707.838 471.978 710.566 472.641 711.83 474.663C710.574 472.634 711.267 470.017 713.375 468.806C711.258 470.01 708.53 469.346 707.266 467.324C708.522 469.354 707.83 471.978 705.721 473.181Z" fill="#FFEEA4"/>
<path d="M931.387 665.515C933.504 664.311 936.232 664.974 937.496 666.996C936.24 664.967 936.933 662.351 939.041 661.139C936.924 662.343 934.196 661.679 932.932 659.657C934.196 661.687 933.504 664.303 931.387 665.515Z" fill="#FFEEA4"/>
<path d="M835.876 619.83C837.325 619.004 839.193 619.459 840.054 620.841C839.193 619.451 839.668 617.661 841.109 616.835C839.66 617.661 837.792 617.206 836.931 615.824C837.792 617.213 837.317 619.004 835.876 619.83Z" fill="#FFEEA4"/>
<path d="M774.825 669.52C778.061 667.668 782.254 668.686 784.186 671.788C782.254 668.686 783.317 664.666 786.553 662.814C783.317 664.666 779.123 663.647 777.192 660.545C779.123 663.655 778.061 667.668 774.825 669.52Z" fill="#FFEEA4"/>
<path d="M440.149 501.75C438.044 500.531 437.368 497.913 438.633 495.89C437.357 497.91 434.624 498.561 432.515 497.353C434.62 498.572 435.296 501.19 434.03 503.213C435.306 501.193 438.047 500.538 440.149 501.75Z" fill="#FFEEA4"/>
<path d="M804.512 431.783C802.407 430.564 801.732 427.945 802.997 425.922C801.721 427.942 798.987 428.594 796.878 427.386C798.984 428.604 799.659 431.223 798.394 433.246C799.666 431.219 802.407 430.564 804.512 431.783Z" fill="#FFEEA4"/>
<path d="M452.939 642.286C450.834 641.067 450.158 638.448 451.423 636.425C450.147 638.445 447.414 639.097 445.305 637.888C447.41 639.107 448.086 641.726 446.821 643.749C448.097 641.729 450.837 641.073 452.939 642.286Z" fill="#FFEEA4"/>
<path d="M328.659 659.022C326.553 657.803 325.878 655.185 327.143 653.162C325.867 655.182 323.133 655.834 321.025 654.625C323.13 655.844 323.805 658.463 322.54 660.486C323.816 658.466 326.55 657.814 328.659 659.022Z" fill="#FFEEA4"/>
<path d="M654.061 320.527C649.283 317.777 647.747 311.831 650.63 307.254C647.751 311.838 641.543 313.321 636.772 310.567C641.55 313.317 643.086 319.263 640.203 323.84C643.075 319.26 649.283 317.777 654.061 320.527Z" fill="#FFEEA4"/>
<path d="M559.856 819.45C557.751 818.231 557.075 815.613 558.34 813.59C557.064 815.61 554.331 816.262 552.222 815.053C554.327 816.272 555.003 818.891 553.738 820.914C555.01 818.887 557.743 818.235 559.856 819.45Z" fill="#FFEEA4"/>
<path d="M417.432 696.275C415.327 695.056 414.652 692.438 415.917 690.415C414.641 692.435 411.907 693.087 409.798 691.878C411.904 693.097 412.579 695.715 411.314 697.738C412.59 695.718 415.323 695.067 417.432 696.275Z" fill="#EF5B5B"/>
<path d="M490.362 605.803C486.364 603.501 485.075 598.522 487.492 594.682C485.082 598.518 479.883 599.762 475.881 597.453C479.879 599.756 481.168 604.735 478.751 608.574C481.161 604.739 486.36 603.494 490.362 605.803Z" fill="#EF5B5B"/>
<path d="M733.471 311.175C731.366 309.956 730.691 307.337 731.956 305.314C730.68 307.334 727.946 307.986 725.837 306.777C727.943 307.996 728.618 310.615 727.353 312.638C728.625 310.611 731.366 309.956 733.471 311.175Z" fill="#EF5B5B"/>
<path d="M623.627 787.576C620.163 785.576 619.044 781.262 621.137 777.939C619.044 781.262 614.546 782.338 611.075 780.343C614.539 782.342 615.658 786.657 613.565 789.979C615.658 786.657 620.16 785.587 623.627 787.576Z" fill="#EF5B5B"/>
<path d="M451.755 448.038C450.704 447.432 450.365 446.119 450.999 445.111C450.365 446.119 448.994 446.447 447.943 445.841C448.994 446.447 449.334 447.76 448.699 448.768C449.334 447.76 450.704 447.432 451.755 448.038Z" fill="#EF5B5B"/>
<path d="M614.833 659.333C613.782 658.727 613.442 657.415 614.077 656.406C613.442 657.415 612.071 657.742 611.02 657.136C612.071 657.742 612.411 659.055 611.776 660.063C612.407 659.048 613.778 658.72 614.833 659.333Z" fill="#EF5B5B"/>
<path d="M747.664 493.977C745.914 492.969 745.344 490.786 746.407 489.104C745.351 490.782 743.072 491.332 741.318 490.317C743.069 491.325 743.638 493.508 742.576 495.191C743.631 493.512 745.914 492.969 747.664 493.977Z" fill="#EF5B5B"/>
<path d="M852.14 418.353C847.9 415.912 846.538 410.638 849.093 406.571C846.538 410.638 841.031 411.953 836.791 409.513C841.031 411.953 842.393 417.227 839.839 421.295C842.393 417.227 847.9 415.912 852.14 418.353Z" fill="#EF5B5B"/>
<path d="M652.575 374.348C650.041 372.886 649.221 369.729 650.748 367.292C649.217 369.723 645.922 370.514 643.381 369.055C645.915 370.518 646.735 373.674 645.208 376.112C646.735 373.674 650.03 372.882 652.575 374.348Z" fill="#EF5B5B"/>
<path d="M764.87 329.287C762.764 328.068 762.089 325.449 763.354 323.427C762.078 325.446 759.344 326.098 757.236 324.89C759.341 326.109 760.016 328.727 758.751 330.75C760.023 328.723 762.757 328.071 764.87 329.287Z" fill="#FFEEA4"/>
<path d="M515.98 715.437C511.359 712.772 509.872 707.029 512.662 702.596C509.872 707.029 503.872 708.458 499.255 705.8C503.875 708.464 505.362 714.208 502.573 718.641C505.359 714.201 511.359 712.772 515.98 715.437Z" fill="#FFEEA4"/>
<path d="M606.486 696.842C604.38 695.623 603.705 693.004 604.97 690.981C603.694 693.001 600.961 693.653 598.852 692.445C600.957 693.663 601.633 696.282 600.367 698.305C601.643 696.285 604.384 695.629 606.486 696.842Z" fill="#FFEEA4"/>
<path d="M676.841 415.317C674.736 414.098 674.061 411.48 675.326 409.457C674.05 411.477 671.316 412.129 669.207 410.92C671.313 412.139 671.988 414.757 670.723 416.78C671.995 414.754 674.729 414.102 676.841 415.317Z" fill="#FFEEA4"/>
<path d="M679.91 517.611C678.467 516.777 678.006 514.985 678.871 513.604C677.999 514.988 676.127 515.434 674.688 514.607C676.131 515.44 676.592 517.233 675.727 518.614C676.599 517.229 678.471 516.784 679.91 517.611Z" fill="#FFEEA4"/>
<path d="M754.413 545.761C751.183 543.904 750.144 539.88 752.089 536.782C750.144 539.88 745.944 540.883 742.714 539.026C745.944 540.883 746.983 544.907 745.038 548.004C746.99 544.903 751.183 543.904 754.413 545.761Z" fill="#FFEEA4"/>
<path d="M404.078 762.722C405.326 764.818 404.649 767.437 402.565 768.586C404.657 767.445 407.359 768.212 408.615 770.3C407.367 768.205 408.044 765.586 410.127 764.436C408.036 765.578 405.326 764.81 404.078 762.722Z" fill="#FFEEA4"/>
<path d="M51.8395 645.872C53.0879 647.967 52.4104 650.587 50.3272 651.736C52.4184 650.595 55.1204 651.362 56.3766 653.45C55.1283 651.355 55.8057 648.735 57.889 647.586C55.7978 648.735 53.0879 647.967 51.8395 645.872Z" fill="#FFEEA4"/>
<path d="M461.005 633.693C462.253 635.788 461.575 638.407 459.492 639.557C461.583 638.415 464.285 639.183 465.542 641.271C464.293 639.175 464.971 636.556 467.054 635.407C464.963 636.548 462.253 635.78 461.005 633.693Z" fill="#FFEEA4"/>
<path d="M577.69 679.776C578.938 681.872 578.261 684.491 576.178 685.641C578.269 684.499 580.971 685.266 582.227 687.354C580.979 685.259 581.656 682.64 583.74 681.49C581.648 682.632 578.946 681.864 577.69 679.776Z" fill="#FFEEA4"/>
<path d="M129.378 816.558C132.219 821.299 130.683 827.249 125.951 829.84C130.683 827.241 136.82 828.981 139.652 833.723C136.812 828.981 138.348 823.032 143.079 820.441C138.356 823.04 132.219 821.299 129.378 816.558Z" fill="#FFEEA4"/>
<path d="M453.432 426.681C454.681 428.776 454.003 431.396 451.92 432.545C454.011 431.404 456.713 432.171 457.969 434.259C456.721 432.164 457.399 429.544 459.482 428.395C457.391 429.544 454.689 428.777 453.432 426.681Z" fill="#FFEEA4"/>
<path d="M518.183 603.867C519.432 605.963 518.754 608.582 516.671 609.732C518.762 608.59 521.464 609.357 522.72 611.445C521.472 609.35 522.149 606.731 524.233 605.581C522.142 606.723 519.44 605.955 518.183 603.867Z" fill="#EF5B5B"/>
<path d="M410.627 647.282C413.004 651.25 411.72 656.234 407.752 658.408C411.712 656.234 416.853 657.689 419.23 661.665C416.853 657.697 418.137 652.713 422.105 650.539C418.145 652.713 413.004 651.258 410.627 647.282Z" fill="#EF5B5B"/>
<path d="M55.4626 785.945C56.7109 788.041 56.0335 790.66 53.9502 791.809C56.0414 790.668 58.7434 791.435 59.9997 793.523C58.7513 791.428 59.4288 788.809 61.5121 787.659C59.4208 788.808 56.7109 788.041 55.4626 785.945Z" fill="#EF5B5B"/>
<path d="M382.275 423.377C384.331 426.82 383.221 431.139 379.786 433.02C383.221 431.139 387.668 432.398 389.733 435.84C387.676 432.398 388.787 428.079 392.222 426.198C388.787 428.079 384.339 426.812 382.275 423.377Z" fill="#EF5B5B"/>
<path d="M367.913 803.982C368.537 805.026 368.198 806.34 367.156 806.911C368.198 806.34 369.553 806.724 370.177 807.768C369.553 806.724 369.892 805.41 370.934 804.839C369.892 805.41 368.537 805.026 367.913 803.982Z" fill="#EF5B5B"/>
<path d="M327.817 539.72C328.441 540.764 328.102 542.077 327.061 542.648C328.102 542.077 329.458 542.461 330.082 543.505C329.458 542.461 329.796 541.148 330.838 540.577C329.796 541.155 328.441 540.772 327.817 539.72Z" fill="#EF5B5B"/>
<path d="M131.639 619.302C132.68 621.04 132.12 623.226 130.379 624.178C132.112 623.226 134.368 623.86 135.408 625.605C134.368 623.868 134.927 621.682 136.669 620.73C134.935 621.682 132.68 621.04 131.639 619.302Z" fill="#EF5B5B"/>
<path d="M3.72082 634.336C6.24142 638.544 4.87868 643.821 0.680285 646.127C4.87868 643.821 10.3224 645.365 12.843 649.572C10.3224 645.365 11.6852 640.088 15.8836 637.782C11.6852 640.088 6.24142 638.544 3.72082 634.336Z" fill="#EF5B5B"/>
<path d="M156.752 770.265C158.257 772.783 157.446 775.943 154.933 777.327C157.446 775.951 160.705 776.871 162.218 779.389C160.713 776.871 161.525 773.711 164.037 772.327C161.525 773.711 158.265 772.791 156.752 770.265Z" fill="#EF5B5B"/>
<path d="M36.8112 754.786C38.0595 756.881 37.3821 759.501 35.2988 760.65C37.3901 759.509 40.092 760.276 41.3483 762.364C40.1 760.269 40.7774 757.649 42.8607 756.5C40.7695 757.649 38.0675 756.882 36.8112 754.786Z" fill="#FFEEA4"/>
<path d="M441.373 538.984C444.117 543.574 442.637 549.323 438.057 551.833C442.637 549.323 448.567 551.009 451.311 555.591C448.567 551.001 450.047 545.253 454.627 542.742C450.047 545.26 444.117 543.574 441.373 538.984Z" fill="#FFEEA4"/>
<path d="M353.285 511.024C354.533 513.12 353.856 515.739 351.772 516.889C353.864 515.747 356.566 516.515 357.822 518.603C356.574 516.507 357.251 513.888 359.334 512.738C357.243 513.88 354.533 513.112 353.285 511.024Z" fill="#FFEEA4"/>
<path d="M155.403 722.62C156.651 724.716 155.974 727.335 153.891 728.485C155.982 727.343 158.684 728.111 159.94 730.199C158.692 728.103 159.369 725.484 161.452 724.334C159.361 725.484 156.659 724.716 155.403 722.62Z" fill="#FFEEA4"/>
<path d="M202.292 631.752C203.148 633.186 202.683 634.979 201.26 635.762C202.691 634.979 204.54 635.506 205.397 636.932C204.54 635.498 205.005 633.705 206.429 632.922C204.997 633.705 203.148 633.178 202.292 631.752Z" fill="#FFEEA4"/>
<path d="M150.838 570.761C152.758 573.965 151.718 577.99 148.522 579.747C151.718 577.99 155.871 579.168 157.791 582.372C155.871 579.168 156.911 575.143 160.107 573.386C156.903 575.142 152.758 573.965 150.838 570.761Z" fill="#FFEEA4"/>
<path d="M986.93 234.379C984.825 233.16 984.15 230.542 985.415 228.519C984.139 230.539 981.405 231.191 979.296 229.982C981.402 231.201 982.077 233.82 980.812 235.842C982.088 233.823 984.829 233.167 986.93 234.379Z" fill="#FFEEA4"/>
<path d="M1351.29 164.412C1349.19 163.193 1348.51 160.574 1349.78 158.552C1348.5 160.571 1345.77 161.223 1343.66 160.015C1345.76 161.234 1346.44 163.852 1345.18 165.875C1346.45 163.848 1349.19 163.193 1351.29 164.412Z" fill="#FFEEA4"/>
<path d="M999.721 374.915C997.616 373.696 996.941 371.078 998.206 369.055C996.93 371.074 994.196 371.726 992.087 370.518C994.193 371.737 994.868 374.355 993.603 376.378C994.879 374.358 997.62 373.703 999.721 374.915Z" fill="#FFEEA4"/>
<path d="M875.44 391.651C873.335 390.432 872.659 387.814 873.924 385.791C872.648 387.811 869.915 388.463 867.806 387.254C869.911 388.473 870.587 391.092 869.321 393.114C870.598 391.095 873.331 390.443 875.44 391.651Z" fill="#FFEEA4"/>
<path d="M1106.64 552.08C1104.53 550.861 1103.86 548.243 1105.12 546.22C1103.85 548.239 1101.11 548.891 1099 547.683C1101.11 548.902 1101.78 551.52 1100.52 553.543C1101.79 551.516 1104.52 550.865 1106.64 552.08Z" fill="#FFEEA4"/>
<path d="M964.213 428.905C962.108 427.686 961.433 425.067 962.698 423.044C961.422 425.064 958.688 425.716 956.579 424.507C958.685 425.726 959.36 428.345 958.095 430.368C959.371 428.348 962.105 427.696 964.213 428.905Z" fill="#EF5B5B"/>
<path d="M910.033 375.819C906.035 373.517 904.746 368.538 907.163 364.698C904.753 368.534 899.554 369.778 895.552 367.469C899.55 369.772 900.839 374.751 898.422 378.59C900.832 374.755 906.031 373.51 910.033 375.819Z" fill="#EF5B5B"/>
<path d="M1170.41 520.205C1166.94 518.206 1165.82 513.891 1167.92 510.568C1165.82 513.891 1161.33 514.968 1157.85 512.972C1161.32 514.972 1162.44 519.286 1160.34 522.609C1162.44 519.286 1166.94 518.216 1170.41 520.205Z" fill="#EF5B5B"/>
<path d="M998.533 180.667C997.482 180.061 997.142 178.749 997.777 177.74C997.142 178.749 995.772 179.076 994.721 178.47C995.772 179.076 996.111 180.389 995.477 181.397C996.111 180.389 997.482 180.061 998.533 180.667Z" fill="#EF5B5B"/>
<path d="M1161.62 391.962C1160.56 391.356 1160.23 390.043 1160.86 389.035C1160.23 390.043 1158.85 390.371 1157.8 389.765C1158.85 390.371 1159.19 391.684 1158.56 392.692C1159.19 391.677 1160.56 391.349 1161.62 391.962Z" fill="#EF5B5B"/>
<path d="M1294.45 226.606C1292.7 225.598 1292.13 223.415 1293.19 221.733C1292.13 223.412 1289.85 223.961 1288.1 222.947C1289.85 223.954 1290.42 226.137 1289.36 227.82C1290.41 226.141 1292.7 225.598 1294.45 226.606Z" fill="#EF5B5B"/>
<path d="M1398.92 150.982C1394.68 148.542 1393.32 143.267 1395.87 139.2C1393.32 143.267 1387.81 144.583 1383.57 142.142C1387.81 144.583 1389.17 149.857 1386.62 153.924C1389.17 149.857 1394.68 148.542 1398.92 150.982Z" fill="#EF5B5B"/>
<path d="M1199.36 106.977C1196.82 105.515 1196 102.359 1197.53 99.921C1196 102.352 1192.7 103.143 1190.16 101.684C1192.7 103.147 1193.52 106.303 1191.99 108.741C1193.52 106.303 1196.81 105.512 1199.36 106.977Z" fill="#EF5B5B"/>
<path d="M1311.65 61.9157C1309.54 60.6967 1308.87 58.0784 1310.13 56.0555C1308.85 58.0753 1306.12 58.7271 1304.01 57.5186C1306.12 58.7375 1306.79 61.3558 1305.53 63.3788C1306.8 61.3522 1309.53 60.7004 1311.65 61.9157Z" fill="#FFEEA4"/>
<path d="M1062.76 448.066C1058.14 445.402 1056.65 439.658 1059.44 435.225C1056.65 439.658 1050.65 441.087 1046.03 438.429C1050.65 441.094 1052.14 446.837 1049.35 451.27C1052.14 446.83 1058.14 445.402 1062.76 448.066Z" fill="#FFEEA4"/>
<path d="M1153.27 429.471C1151.16 428.252 1150.49 425.633 1151.75 423.61C1150.48 425.63 1147.74 426.282 1145.64 425.073C1147.74 426.292 1148.42 428.911 1147.15 430.934C1148.43 428.914 1151.17 428.258 1153.27 429.471Z" fill="#FFEEA4"/>
<path d="M1223.62 147.947C1221.52 146.728 1220.84 144.109 1222.11 142.086C1220.83 144.106 1218.1 144.758 1215.99 143.549C1218.09 144.768 1218.77 147.387 1217.5 149.41C1218.78 147.383 1221.51 146.731 1223.62 147.947Z" fill="#FFEEA4"/>
<path d="M1226.69 250.24C1225.24 249.407 1224.78 247.614 1225.65 246.234C1224.78 247.618 1222.9 248.063 1221.47 247.236C1222.91 248.07 1223.37 249.862 1222.5 251.243C1223.38 249.859 1225.25 249.414 1226.69 250.24Z" fill="#FFEEA4"/>
<path d="M1301.19 278.39C1297.96 276.533 1296.92 272.509 1298.87 269.412C1296.92 272.509 1292.72 273.512 1289.49 271.655C1292.72 273.512 1293.76 277.536 1291.82 280.634C1293.77 277.532 1297.96 276.533 1301.19 278.39Z" fill="#FFEEA4"/>
<path d="M1141.5 35.7937C1139.4 34.5148 1138.72 31.7715 1139.98 29.6536C1138.71 31.7682 1135.98 32.4484 1133.87 31.1805C1135.97 32.4593 1136.65 35.2027 1135.39 37.3206C1136.66 35.1989 1139.4 34.5148 1141.5 35.7937Z" fill="#EF5B5B"/>
<path d="M1012.03 38.0185C1007.25 35.1332 1005.71 28.9033 1008.59 24.1117C1005.71 28.9104 999.508 30.4579 994.735 27.5688C999.515 30.4541 1001.06 36.684 998.179 41.4757C1001.05 36.6807 1007.25 35.1332 1012.03 38.0185Z" fill="#FFEEA4"/>
<path d="M1370.63 277.24C1387.06 275.134 1398.6 260.656 1396.41 244.903C1394.21 229.15 1379.11 218.087 1362.68 220.192C1346.25 222.298 1334.71 236.776 1336.91 252.529C1339.1 268.282 1354.2 279.346 1370.63 277.24Z" fill="#EF5B5B"/>
<path d="M1378.33 269.585C1390.34 263.406 1394.86 249.059 1388.41 237.54C1381.97 226.021 1367 221.693 1354.99 227.872C1342.97 234.051 1338.46 248.398 1344.9 259.916C1351.35 271.435 1366.31 275.764 1378.33 269.585Z" fill="#F4BD31"/>
<path d="M1377.68 245.44C1381.05 255.835 1376.55 266.77 1367.43 272.372C1369.61 272.303 1371.8 271.971 1373.98 271.323C1386.99 267.449 1394.28 254.191 1390.24 241.705C1386.2 229.226 1372.37 222.242 1359.34 226.116C1357.17 226.764 1355.16 227.675 1353.33 228.802C1364.15 228.47 1374.31 235.037 1377.68 245.44Z" fill="#EA902F"/>
<path d="M1366.6 266.261C1366.92 267.927 1366.78 270.127 1366.46 272.38C1367.68 272.388 1368.92 272.311 1370.16 272.141C1372.47 261.445 1364.96 252.146 1361.27 240.455C1359.41 234.551 1356.32 230.947 1353.4 228.755C1351.08 230.168 1349.06 231.919 1347.4 233.926C1355.79 238.988 1357.02 256.113 1354.42 263.042C1353.71 264.956 1353.69 267.04 1354.04 269.054C1356.02 270.189 1358.17 271.045 1360.42 271.608C1360.16 269.131 1359.95 266.322 1360 264.169C1360.1 259.261 1365.18 258.906 1366.6 266.261Z" fill="#FFE269"/>
<path d="M1344.59 238.124C1344.21 238.865 1343.86 239.629 1343.56 240.409C1345.9 243.85 1348 249.067 1347.54 256.476C1347.39 258.96 1347.2 261.137 1347 263.051C1347.51 263.691 1348.05 264.301 1348.61 264.879C1349.93 258.775 1351.11 247.346 1344.59 238.124Z" fill="#FFE269"/>
<path d="M1375.47 249.183C1376.41 248.905 1377.41 249.407 1377.7 250.31C1377.99 251.213 1377.47 252.17 1376.52 252.448C1375.58 252.725 1374.58 252.224 1374.29 251.321C1374 250.418 1374.53 249.461 1375.47 249.183Z" fill="#FFE269"/>
<path d="M1370.83 229.064C1374.41 227.999 1378.21 229.913 1379.31 233.34C1380.42 236.766 1378.43 240.408 1374.85 241.466C1371.28 242.531 1367.48 240.617 1366.38 237.19C1365.26 233.772 1367.26 230.129 1370.83 229.064Z" fill="#EA902F"/>
<path d="M818.469 648.457C834.9 646.351 846.439 631.873 844.242 616.12C842.046 600.367 826.946 589.303 810.515 591.409C794.084 593.515 782.544 607.993 784.741 623.746C786.937 639.499 802.038 650.563 818.469 648.457Z" fill="#EF5B5B"/>
<path d="M826.164 640.802C838.178 634.623 842.693 620.276 836.248 608.757C829.803 597.238 814.839 592.91 802.825 599.088C790.811 605.267 786.296 619.614 792.741 631.133C799.185 642.652 814.149 646.98 826.164 640.802Z" fill="#F4BD31"/>
<path d="M825.514 616.657C828.878 627.052 824.387 637.987 815.267 643.589C817.44 643.52 819.63 643.188 821.811 642.54C834.826 638.666 842.111 625.408 838.07 612.922C834.029 600.443 820.201 593.459 807.178 597.333C805.004 597.981 802.992 598.892 801.165 600.019C811.983 599.687 822.141 606.254 825.514 616.657Z" fill="#EA902F"/>
<path d="M814.44 637.477C814.762 639.144 814.618 641.344 814.296 643.597C815.519 643.605 816.759 643.528 817.998 643.358C820.308 632.662 812.798 623.363 809.112 611.671C807.253 605.768 804.162 602.164 801.24 599.972C798.922 601.385 796.902 603.136 795.235 605.143C803.631 610.205 804.862 627.329 802.262 634.259C801.546 636.173 801.53 638.257 801.884 640.271C803.864 641.405 806.013 642.262 808.259 642.825C808.001 640.348 807.792 637.539 807.84 635.386C807.937 630.478 813.024 630.123 814.44 637.477Z" fill="#FFE269"/>
<path d="M792.433 609.341C792.047 610.082 791.7 610.846 791.395 611.625C793.737 615.067 795.838 620.284 795.379 627.692C795.226 630.177 795.041 632.353 794.84 634.267C795.347 634.908 795.886 635.518 796.449 636.096C797.769 629.992 798.945 618.563 792.433 609.341Z" fill="#FFE269"/>
<path d="M823.304 620.4C824.246 620.122 825.244 620.624 825.534 621.527C825.824 622.43 825.3 623.387 824.359 623.664C823.417 623.942 822.418 623.441 822.129 622.538C821.839 621.635 822.362 620.678 823.304 620.4Z" fill="#FFE269"/>
<path d="M818.668 600.281C822.242 599.216 826.041 601.13 827.143 604.556C828.254 607.983 826.258 611.625 822.684 612.682C819.111 613.747 815.311 611.833 814.209 608.407C813.09 604.988 815.094 601.346 818.668 600.281Z" fill="#EA902F"/>
<path d="M373.787 125.303C375.812 123.949 378.451 124.5 379.696 126.533C378.458 124.492 379.091 121.746 381.107 120.384C379.083 121.738 376.444 121.186 375.199 119.154C376.436 121.195 375.804 123.949 373.787 125.303Z" fill="#FFEEA4"/>
<path d="M274.634 484.215C276.658 482.861 279.297 483.413 280.543 485.446C279.305 483.404 279.937 480.658 281.954 479.297C279.929 480.65 277.29 480.099 276.045 478.066C277.291 480.107 276.658 482.861 274.634 484.215Z" fill="#FFEEA4"/>
<path d="M242.668 74.4769C244.693 73.1232 247.332 73.6748 248.577 75.7075C247.339 73.6664 247.972 70.9199 249.988 69.5586C247.964 70.9123 245.325 70.3607 244.079 68.328C245.317 70.3691 244.685 73.1236 242.668 74.4769Z" fill="#FFEEA4"/>
<path d="M440.669 398.176C445.248 395.096 451.243 396.347 454.051 400.964C451.235 396.347 452.668 390.109 457.248 387.038C452.668 390.117 446.674 388.867 443.866 384.249C446.682 388.858 445.248 395.096 440.669 398.176Z" fill="#FFEEA4"/>
<path d="M37.0959 92.1094C39.1203 90.7556 41.7594 91.3072 43.0045 93.34C41.767 91.2988 42.3993 88.5524 44.4158 87.191C42.3914 88.5448 39.7524 87.9932 38.5072 85.9605C39.7525 88.0012 39.1202 90.7476 37.0959 92.1094Z" fill="#FFEEA4"/>
<path d="M210.218 18.5785C212.242 17.2248 214.881 17.7764 216.127 19.8091C214.889 17.768 215.521 15.0215 217.538 13.6602C215.513 15.0139 212.874 14.4623 211.629 12.4296C212.867 14.4707 212.235 17.2172 210.218 18.5785Z" fill="#EF5B5B"/>
<path d="M258.631 124.336C262.464 121.76 267.485 122.804 269.841 126.677C267.485 122.812 268.683 117.587 272.524 115.01C268.691 117.587 263.67 116.542 261.314 112.67C263.67 116.534 262.472 121.76 258.631 124.336Z" fill="#EF5B5B"/>
<path d="M413.801 473.783C415.825 472.43 418.464 472.981 419.71 475.014C418.472 472.973 419.104 470.226 421.121 468.865C419.096 470.219 416.457 469.667 415.212 467.634C416.458 469.675 415.825 472.43 413.801 473.783Z" fill="#EF5B5B"/>
<path d="M37.2626 163.631C40.5878 161.401 44.9394 162.304 46.9779 165.657C44.9394 162.304 45.9757 157.784 49.3008 155.546C45.9756 157.776 41.624 156.873 39.5855 153.52C41.624 156.873 40.5799 161.394 37.2626 163.631Z" fill="#EF5B5B"/>
<path d="M416.588 159.57C417.596 158.893 418.92 159.168 419.539 160.185C418.92 159.168 419.236 157.791 420.245 157.114C419.236 157.791 417.913 157.515 417.294 156.499C417.913 157.515 417.596 158.893 416.588 159.57Z" fill="#EF5B5B"/>
<path d="M155.642 212.6C156.65 211.924 157.974 212.199 158.592 213.216C157.974 212.199 158.29 210.822 159.298 210.145C158.29 210.822 156.966 210.546 156.347 209.53C156.974 210.546 156.658 211.923 155.642 212.6Z" fill="#EF5B5B"/>
<path d="M244.328 405.475C246.006 404.348 248.209 404.802 249.24 406.501C248.209 404.81 248.731 402.517 250.416 401.389C248.738 402.517 246.535 402.063 245.504 400.363C246.535 402.055 246.006 404.348 244.328 405.475Z" fill="#EF5B5B"/>
<path d="M265.491 533.031C269.555 530.298 274.872 531.407 277.37 535.505C274.872 531.407 276.143 525.874 280.207 523.142C276.143 525.874 270.826 524.765 268.328 520.668C270.826 524.765 269.555 530.298 265.491 533.031Z" fill="#EF5B5B"/>
<path d="M393.294 372.968C395.726 371.337 398.91 371.997 400.409 374.449C398.918 371.996 399.674 368.683 402.107 367.044C399.674 368.675 396.49 368.016 394.991 365.564C396.49 368.016 395.734 371.329 393.294 372.968Z" fill="#EF5B5B"/>
<path d="M383.711 494.001C385.736 492.647 388.375 493.199 389.62 495.231C388.382 493.19 389.015 490.444 391.031 489.082C389.007 490.436 386.368 489.885 385.122 487.852C386.368 489.893 385.735 492.639 383.711 494.001Z" fill="#FFEEA4"/>
<path d="M149.401 98.7585C153.835 95.7829 159.626 96.9875 162.347 101.457C159.626 96.9875 161.016 90.9598 165.442 87.9846C161.008 90.9602 155.217 89.7556 152.496 85.2858C155.224 89.7552 153.835 95.7829 149.401 98.7585Z" fill="#FFEEA4"/>
<path d="M125.86 188.454C127.884 187.1 130.523 187.652 131.768 189.684C130.531 187.643 131.163 184.897 133.179 183.535C131.155 184.889 128.516 184.338 127.271 182.305C128.508 184.346 127.876 187.1 125.86 188.454Z" fill="#FFEEA4"/>
<path d="M345.958 376.63C347.983 375.277 350.622 375.828 351.867 377.861C350.629 375.82 351.262 373.073 353.278 371.712C351.254 373.066 348.615 372.514 347.37 370.482C348.615 372.522 347.983 375.269 345.958 376.63Z" fill="#FFEEA4"/>
<path d="M253.285 334.019C254.671 333.091 256.477 333.47 257.326 334.859C256.477 333.462 256.911 331.582 258.289 330.654C256.903 331.582 255.097 331.203 254.248 329.814C255.097 331.211 254.663 333.091 253.285 334.019Z" fill="#FFEEA4"/>
<path d="M195.11 388.578C198.204 386.496 202.26 387.343 204.164 390.462C202.26 387.343 203.231 383.122 206.325 381.04C203.231 383.122 199.175 382.275 197.271 379.156C199.175 382.283 198.204 386.496 195.11 388.578Z" fill="#FFEEA4"/>
<path d="M830.975 137.424C832.999 136.071 835.638 136.622 836.883 138.655C835.646 136.614 836.278 133.867 838.295 132.506C836.27 133.86 833.631 133.308 832.386 131.275C833.624 133.317 832.991 136.071 830.975 137.424Z" fill="#FFEEA4"/>
<path d="M731.819 496.337C733.843 494.983 736.482 495.535 737.727 497.568C736.49 495.526 737.122 492.78 739.138 491.419C737.114 492.772 734.475 492.221 733.23 490.188C734.475 492.229 733.843 494.983 731.819 496.337Z" fill="#FFEEA4"/>
<path d="M699.852 86.599C701.876 85.2452 704.515 85.7968 705.76 87.8295C704.523 85.7884 705.155 83.042 707.172 81.6806C705.147 83.0344 702.508 82.4828 701.263 80.45C702.501 82.4912 701.868 85.2456 699.852 86.599Z" fill="#FFEEA4"/>
<path d="M897.854 410.298C902.434 407.218 908.428 408.469 911.236 413.086C908.42 408.469 909.854 402.231 914.434 399.16C909.854 402.239 903.86 400.989 901.052 396.371C903.867 400.98 902.434 407.218 897.854 410.298Z" fill="#FFEEA4"/>
<path d="M494.281 104.231C496.305 102.878 498.944 103.429 500.189 105.462C498.952 103.421 499.584 100.674 501.6 99.3131C499.576 100.667 496.937 100.115 495.692 98.0825C496.937 100.123 496.305 102.87 494.281 104.231Z" fill="#FFEEA4"/>
<path d="M667.405 30.7005C669.429 29.3468 672.068 29.8984 673.313 31.9311C672.076 29.89 672.708 27.1435 674.724 25.7822C672.7 27.1359 670.061 26.5844 668.816 24.5516C670.053 26.5928 669.421 29.3392 667.405 30.7005Z" fill="#EF5B5B"/>
<path d="M715.816 136.458C719.649 133.882 724.67 134.926 727.026 138.799C724.67 134.934 725.868 129.709 729.709 127.132C725.876 129.709 720.855 128.664 718.499 124.792C720.855 128.656 719.657 133.882 715.816 136.458Z" fill="#EF5B5B"/>
<path d="M870.989 485.906C873.014 484.552 875.653 485.103 876.898 487.136C875.661 485.095 876.293 482.349 878.309 480.987C876.285 482.341 873.646 481.789 872.401 479.757C873.646 481.797 873.014 484.552 870.989 485.906Z" fill="#EF5B5B"/>
<path d="M494.449 175.753C497.774 173.523 502.126 174.426 504.164 177.779C502.126 174.426 503.162 169.906 506.487 167.668C503.162 169.898 498.811 168.995 496.772 165.642C498.811 168.995 497.766 173.516 494.449 175.753Z" fill="#EF5B5B"/>
<path d="M873.774 171.692C874.782 171.015 876.106 171.29 876.724 172.307C876.106 171.29 876.422 169.913 877.43 169.236C876.422 169.913 875.098 169.637 874.479 168.621C875.098 169.637 874.782 171.015 873.774 171.692Z" fill="#EF5B5B"/>
<path d="M612.827 224.722C613.836 224.046 615.159 224.321 615.778 225.338C615.159 224.321 615.475 222.944 616.484 222.267C615.475 222.944 614.152 222.668 613.533 221.651C614.16 222.668 613.843 224.045 612.827 224.722Z" fill="#EF5B5B"/>
<path d="M701.512 417.597C703.19 416.469 705.393 416.924 706.425 418.623C705.393 416.932 705.915 414.639 707.601 413.511C705.923 414.639 703.72 414.185 702.689 412.485C703.72 414.177 703.19 416.469 701.512 417.597Z" fill="#EF5B5B"/>
<path d="M722.675 545.152C726.739 542.42 732.056 543.529 734.555 547.626C732.056 543.529 733.328 537.996 737.392 535.264C733.328 537.996 728.011 536.887 725.512 532.79C728.011 536.887 726.739 542.42 722.675 545.152Z" fill="#EF5B5B"/>
<path d="M850.477 385.09C852.909 383.459 856.093 384.119 857.592 386.57C856.101 384.118 856.858 380.805 859.29 379.166C856.858 380.797 853.674 380.138 852.175 377.686C853.674 380.138 852.917 383.451 850.477 385.09Z" fill="#EF5B5B"/>
<path d="M840.898 506.123C842.922 504.769 845.561 505.321 846.806 507.354C845.569 505.313 846.201 502.566 848.218 501.205C846.193 502.558 843.554 502.007 842.309 499.974C843.554 502.015 842.922 504.761 840.898 506.123Z" fill="#FFEEA4"/>
<path d="M606.589 110.88C611.022 107.905 616.814 109.109 619.535 113.579C616.814 109.109 618.204 103.082 622.629 100.107C618.196 103.082 612.404 101.878 609.683 97.4077C612.412 101.877 611.022 107.905 606.589 110.88Z" fill="#FFEEA4"/>
<path d="M583.046 200.576C585.071 199.222 587.71 199.774 588.955 201.806C587.717 199.765 588.349 197.019 590.366 195.657C588.342 197.011 585.703 196.46 584.457 194.427C585.695 196.468 585.063 199.222 583.046 200.576Z" fill="#FFEEA4"/>
<path d="M803.144 388.752C805.168 387.399 807.807 387.95 809.052 389.983C807.815 387.942 808.447 385.195 810.464 383.834C808.439 385.188 805.8 384.636 804.555 382.603C805.8 384.644 805.168 387.391 803.144 388.752Z" fill="#FFEEA4"/>
<path d="M710.472 346.141C711.857 345.213 713.664 345.591 714.512 346.98C713.663 345.583 714.097 343.703 715.475 342.775C714.09 343.704 712.283 343.325 711.434 341.936C712.283 343.333 711.849 345.213 710.472 346.141Z" fill="#FFEEA4"/>
<path d="M652.294 400.7C655.388 398.618 659.444 399.465 661.347 402.584C659.444 399.465 660.414 395.244 663.508 393.162C660.414 395.244 656.358 394.398 654.455 391.278C656.359 394.406 655.388 398.618 652.294 400.7Z" fill="#FFEEA4"/>
</svg>
