<svg width="312" height="48" viewBox="0 0 312 48" fill="none" xmlns="http://www.w3.org/2000/svg">
<path d="M156.65 0.792299V47.5378H141.936V29.315H127.95V47.5378H113.235V0.792299H127.95V17.6286H141.936V0.792299H156.65Z" fill="#EF5B5B"/>
<path d="M180.173 48C175.754 48 171.689 46.9656 167.977 44.8968C164.309 42.8281 161.393 39.967 159.228 36.3136C157.062 32.6602 155.98 28.5447 155.98 23.967C155.98 19.3893 157.062 15.2737 159.228 11.6204C161.393 7.96699 164.309 5.12792 167.977 3.10316C171.689 1.03439 175.754 0 180.173 0C184.592 0 188.635 1.03439 192.303 3.10316C195.971 5.12792 198.865 7.96699 200.986 11.6204C203.151 15.2737 204.234 19.3893 204.234 23.967C204.234 28.5447 203.151 32.6602 200.986 36.3136C198.865 39.967 195.949 42.8281 192.237 44.8968C188.569 46.9656 184.548 48 180.173 48ZM180.173 34.3329C183.09 34.3329 185.343 33.4085 186.934 31.5598C188.525 29.6671 189.32 27.1362 189.32 23.967C189.32 20.7538 188.525 18.2228 186.934 16.3741C185.343 14.4814 183.09 13.5351 180.173 13.5351C177.213 13.5351 174.937 14.4814 173.346 16.3741C171.755 18.2228 170.96 20.7538 170.96 23.967C170.96 27.1362 171.755 29.6671 173.346 31.5598C174.937 33.4085 177.213 34.3329 180.173 34.3329Z" fill="#EF5B5B"/>
<path d="M217.96 0.792299V27.1362C217.96 29.293 218.424 31.0096 219.352 32.2861C220.324 33.5186 221.871 34.1348 223.992 34.1348C226.113 34.1348 227.682 33.5186 228.698 32.2861C229.715 31.0096 230.223 29.293 230.223 27.1362V0.792299H244.871V27.1362C244.871 31.5818 243.943 35.3893 242.088 38.5585C240.232 41.6836 237.691 44.0385 234.465 45.6231C231.239 47.2077 227.638 48 223.661 48C219.684 48 216.149 47.2077 213.055 45.6231C210.006 44.0385 207.62 41.6836 205.897 38.5585C204.173 35.4333 203.312 31.6259 203.312 27.1362V0.792299H217.96Z" fill="#EF5B5B"/>
<path d="M263.613 48C258.001 48 253.361 46.7015 249.694 44.1045C246.07 41.4636 244.104 37.6121 243.794 32.5502H259.437C259.658 35.2352 260.851 36.5777 263.016 36.5777C263.812 36.5777 264.475 36.4017 265.005 36.0495C265.579 35.6534 265.867 35.0591 265.867 34.2669C265.867 33.1664 265.27 32.2861 264.077 31.6259C262.884 30.9216 261.028 30.1293 258.509 29.249C255.504 28.1926 253.008 27.1582 251.019 26.1458C249.075 25.1334 247.396 23.6589 245.982 21.7221C244.568 19.7854 243.883 17.2985 243.927 14.2613C243.927 11.2242 244.7 8.64924 246.247 6.53645C247.838 4.37964 249.981 2.75103 252.676 1.65062C255.416 0.550206 258.487 0 261.89 0C267.634 0 272.186 1.3205 275.544 3.96149C278.947 6.60248 280.736 10.3219 280.913 15.1197H265.071C265.027 13.7992 264.696 12.8528 264.077 12.2806C263.458 11.7084 262.707 11.4223 261.823 11.4223C261.205 11.4223 260.697 11.6424 260.299 12.0825C259.901 12.4787 259.702 13.0509 259.702 13.7992C259.702 14.8556 260.277 15.7359 261.426 16.4402C262.619 17.1004 264.497 17.9147 267.06 18.8831C270.02 19.9835 272.451 21.0399 274.351 22.0523C276.295 23.0646 277.974 24.4732 279.388 26.2779C280.802 28.0825 281.509 30.3494 281.509 33.0784C281.509 35.9395 280.802 38.5144 279.388 40.8033C277.974 43.0481 275.92 44.8088 273.224 46.0853C270.529 47.3618 267.325 48 263.613 48Z" fill="#EF5B5B"/>
<path d="M295.429 12.4787V18.2228H310.011V29.249H295.429V35.8514H312V47.5378H280.714V0.792299H312V12.4787H295.429Z" fill="#EF5B5B"/>
<path d="M46.0858 46.8957H33.7188L18.038 25.3209C16.8765 25.3663 15.9313 25.389 15.2025 25.389C14.9064 25.389 14.5876 25.389 14.2459 25.389C13.9043 25.3663 13.5513 25.3436 13.1869 25.3209V38.7286C13.1869 41.6325 13.5057 43.436 14.1435 44.1393C15.0089 45.1375 16.3071 45.6366 18.038 45.6366H19.8487V46.8957H0V45.6366H1.74231C3.70098 45.6366 5.10167 45.0014 5.94435 43.731C6.42263 43.0277 6.66177 41.3602 6.66177 38.7286V8.91859C6.66177 6.01472 6.34292 4.21115 5.70521 3.50787C4.81697 2.50967 3.49601 2.01056 1.74231 2.01056H0V0.751465H16.8765C21.796 0.751465 25.4172 1.11445 27.7403 1.84041C30.0862 2.5437 32.0676 3.85951 33.6847 5.78786C35.3245 7.69352 36.1444 9.97351 36.1444 12.6278C36.1444 15.4636 35.2106 17.9251 33.343 20.0123C31.4982 22.0994 28.6285 23.574 24.734 24.4361L34.2996 37.6737C36.486 40.7137 38.365 42.7328 39.9365 43.731C41.508 44.7292 43.5577 45.3644 46.0858 45.6366V46.8957ZM13.1869 23.177C13.6196 23.177 13.9954 23.1884 14.3143 23.2111C14.6331 23.2111 14.895 23.2111 15.1 23.2111C19.5184 23.2111 22.8436 22.2582 25.0756 20.3526C27.3304 18.4469 28.4577 16.0195 28.4577 13.0702C28.4577 10.189 27.5467 7.85233 25.7247 6.0601C23.9254 4.24518 21.534 3.33772 18.5505 3.33772C17.2295 3.33772 15.4416 3.55324 13.1869 3.98429V23.177Z" fill="black"/>
<path d="M52.3964 3.26966V21.5096H62.5769C65.2189 21.5096 66.984 21.1126 67.8722 20.3185C69.0565 19.275 69.717 17.4374 69.8536 14.8057H71.1177V30.8677H69.8536C69.5348 28.6218 69.2159 27.1812 68.8971 26.546C68.4871 25.7519 67.8153 25.1281 66.8815 24.6743C65.9477 24.2206 64.5128 23.9937 62.5769 23.9937H52.3964V39.205C52.3964 41.2468 52.4875 42.4945 52.6697 42.9483C52.8519 43.3793 53.1707 43.731 53.6262 44.0032C54.0818 44.2528 54.9472 44.3775 56.2226 44.3775H64.0801C66.6993 44.3775 68.601 44.196 69.7853 43.833C70.9696 43.4701 72.1084 42.7554 73.2016 41.6892C74.6137 40.2826 76.0599 38.1614 77.5403 35.3256H78.9068L74.9098 46.8957H39.2095V45.6366H40.8493C41.9425 45.6366 42.9788 45.3757 43.9581 44.8539C44.6869 44.491 45.1766 43.9465 45.4271 43.2205C45.7004 42.4945 45.8371 41.0086 45.8371 38.7626V8.78247C45.8371 5.85592 45.541 4.05234 44.9489 3.37175C44.1289 2.46429 42.7624 2.01056 40.8493 2.01056H39.2095V0.751465H74.9098L75.4222 10.8583H74.0899C73.6116 8.43083 73.0763 6.76338 72.4842 5.85592C71.9148 4.94846 71.0607 4.25652 69.922 3.78011C69.011 3.43981 67.4053 3.26966 65.105 3.26966H52.3964Z" fill="black"/>
<path d="M122.523 0.751465V2.01056C120.884 2.30549 119.642 2.82728 118.8 3.57593C117.592 4.68757 116.522 6.38905 115.588 8.68038L99.4292 47.9506H98.1652L80.8104 8.16994C79.9221 6.12816 79.2958 4.8804 78.9314 4.42667C78.362 3.72339 77.656 3.17892 76.8133 2.79325C75.9934 2.38489 74.8774 2.124 73.4653 2.01056V0.751465H92.3916V2.01056C90.2507 2.21474 88.8614 2.57772 88.2237 3.09951C87.586 3.6213 87.2672 4.29055 87.2672 5.10726C87.2672 6.24159 87.791 8.01113 88.8387 10.4159L100.625 37.4695L111.557 10.7562C112.627 8.12456 113.163 6.2983 113.163 5.27741C113.163 4.61951 112.832 3.99563 112.172 3.40578C111.511 2.79325 110.395 2.3622 108.824 2.11265C108.71 2.08997 108.517 2.05594 108.243 2.01056V0.751465H122.523Z" fill="black"/>
</svg>
