<svg width="645" height="652" viewBox="0 0 645 652" fill="none" xmlns="http://www.w3.org/2000/svg">
<path d="M461.591 395.497L295.102 561.986L82.4702 349.371L248.975 182.882C320.282 111.56 406.738 67.5267 480.556 40.7043C563.809 10.4526 630.978 1.9519 642.36 0.696113C642.747 0.631714 643.004 0.583417 643.278 0.535117C643.777 0.486818 643.986 0.486816 643.986 0.486816C643.986 0.486816 637.015 72.3566 603.849 163.498C577.059 237.396 533.01 324.078 461.591 395.497Z" fill="#B5C5C6"/>
<path d="M393.979 327.891L227.49 494.38L149.213 416.086L315.702 249.597C380.487 184.827 446.706 131.456 502.541 90.9966C577.389 36.7561 633.481 5.50617 642.368 0.660096C643.125 0.225398 643.575 0 643.575 0C643.575 0 643.527 0.160998 643.302 0.499096C640.194 6.32726 608.639 63.7395 552.482 141.148C512.007 196.998 458.701 263.185 393.979 327.891Z" fill="#C5D5D6"/>
<path d="M603.865 163.462C585.946 159.148 568.542 151.677 552.474 141.164C542.75 134.837 533.605 127.415 525.04 118.866C516.362 110.188 508.908 100.882 502.532 90.9966C492.212 75.2509 484.919 58.2333 480.556 40.6845C563.808 10.4327 630.977 1.932 642.36 0.676209C643.116 0.241512 643.567 0.0161133 643.567 0.0161133C643.567 0.0161133 643.519 0.177114 643.293 0.515212C643.793 0.466913 644.002 0.466912 644.002 0.466912C644.002 0.466912 637.031 72.3208 603.865 163.462Z" fill="#E54D42"/>
<path d="M552.466 141.164C542.742 134.836 533.597 127.414 525.032 118.865C516.354 110.187 508.9 100.882 502.524 90.9964C577.373 36.756 633.465 5.50615 642.352 0.660094C643.108 0.225398 643.559 0 643.559 0C643.559 0 643.511 0.160998 643.286 0.499095C640.178 6.34334 608.623 63.7554 552.466 141.164Z" fill="#F55D51"/>
<path d="M478.218 273.665C449.19 302.693 402.114 302.693 373.086 273.665C344.058 244.637 344.058 197.577 373.102 168.533C402.13 139.505 449.206 139.505 478.234 168.533C507.246 197.561 507.246 244.621 478.218 273.665Z" fill="#D5E5E6"/>
<path d="M363.536 283.215C329.276 248.97 329.292 193.232 363.536 158.988C397.78 124.744 453.518 124.744 487.763 158.988C522.023 193.249 522.023 248.97 487.779 283.215C453.518 317.459 397.78 317.475 363.536 283.215ZM468.652 178.082C444.937 154.367 406.346 154.367 382.631 178.082C358.915 201.798 358.899 240.389 382.631 264.104C406.346 287.835 444.937 287.835 468.668 264.104C492.383 240.405 492.383 201.814 468.652 178.082Z" fill="#556566"/>
<path d="M469.363 243.691C457.755 255.299 438.934 255.299 427.31 243.691C415.702 232.083 415.702 213.246 427.31 201.638C438.934 190.03 457.755 190.03 469.363 201.638C480.971 213.262 480.987 232.083 469.363 243.691Z" fill="white"/>
<path d="M324.707 598.706C397.961 525.306 442.799 451.44 424.896 433.537C407.009 415.65 333.143 460.488 259.744 533.743L324.707 598.706Z" fill="#E54D42"/>
<path d="M307.032 581.046C380.335 507.679 433.062 441.718 424.9 433.539C416.737 425.376 350.776 478.103 277.409 551.406L307.032 581.046Z" fill="#F55D51"/>
<path d="M258.597 543.58L213.292 621.809L236.636 609.46L215.578 650.644L254.024 626.848L242.577 651.095L314.866 599.849L258.597 543.58Z" fill="#EF893A"/>
<path d="M265.992 550.986L232.617 608.624L249.811 599.511L234.307 629.843L262.611 612.327L254.191 630.182L307.433 592.427L265.992 550.986Z" fill="#F7B23F"/>
<path d="M176.894 553.065C273.365 456.401 332.387 359.126 308.833 335.572C285.279 312.018 188.019 371.056 91.3555 467.526L176.894 553.065Z" fill="#E54D42"/>
<path d="M153.638 529.801C250.157 433.185 319.58 346.31 308.825 335.555C298.071 324.801 211.196 394.239 114.596 490.758L153.638 529.801Z" fill="#F55D51"/>
<path d="M89.8366 480.468L30.2026 583.491L60.9212 567.231L33.1972 621.455L83.8313 590.125L68.7618 622.051L163.928 554.56L89.8366 480.468Z" fill="#EF893A"/>
<path d="M99.5958 490.225L55.6592 566.12L78.2956 554.125L57.881 594.069L95.1683 570.998L84.0594 594.52L154.174 544.803L99.5958 490.225Z" fill="#F7B23F"/>
<path d="M111.398 385.417C184.637 312.002 229.475 238.152 211.588 220.249C193.717 202.362 119.834 247.2 46.4351 320.454L111.398 385.417Z" fill="#E54D42"/>
<path d="M93.7272 367.737C167.014 294.386 219.757 228.409 211.578 220.246C203.416 212.084 137.454 264.811 64.0874 338.114L93.7272 367.737Z" fill="#F55D51"/>
<path d="M45.3065 330.291L0.00146484 408.52L23.3302 396.171L2.28765 437.339L40.7181 413.559L29.2872 437.806L101.56 386.544L45.3065 330.291Z" fill="#EF893A"/>
<path d="M52.7071 337.697L19.3481 395.335L36.5267 386.222L21.0225 416.554L49.3261 399.038L40.9059 416.892L94.1482 379.138L52.7071 337.697Z" fill="#F7B23F"/>
</svg>
