<svg width="588" height="468" viewBox="0 0 588 468" fill="none" xmlns="http://www.w3.org/2000/svg">
<rect x="197" y="250" width="376" height="19" fill="#EF5B5B"/>
<path d="M15.28 425.64V410.16L75.76 323.4H100.6V407.82H117.34V425.64H100.6V453H80.44V425.64H15.28ZM81.34 344.28L38.86 407.82H81.34V344.28ZM156.483 384.42C144.003 378.18 137.763 368.34 137.763 354.9C137.763 348.42 139.383 342.48 142.623 337.08C145.863 331.68 150.723 327.42 157.203 324.3C163.683 321.06 171.603 319.44 180.963 319.44C190.203 319.44 198.063 321.06 204.543 324.3C211.143 327.42 216.063 331.68 219.303 337.08C222.543 342.48 224.163 348.42 224.163 354.9C224.163 361.62 222.423 367.56 218.943 372.72C215.583 377.76 211.083 381.66 205.443 384.42C212.283 386.94 217.683 391.08 221.643 396.84C225.603 402.48 227.583 409.14 227.583 416.82C227.583 424.62 225.603 431.52 221.643 437.52C217.683 443.52 212.163 448.14 205.083 451.38C198.003 454.62 189.963 456.24 180.963 456.24C171.963 456.24 163.923 454.62 156.843 451.38C149.883 448.14 144.423 443.52 140.463 437.52C136.503 431.52 134.523 424.62 134.523 416.82C134.523 409.02 136.503 402.3 140.463 396.66C144.423 391.02 149.763 386.94 156.483 384.42ZM204.543 357.42C204.543 350.7 202.443 345.54 198.243 341.94C194.043 338.34 188.283 336.54 180.963 336.54C173.763 336.54 168.063 338.34 163.863 341.94C159.663 345.54 157.563 350.76 157.563 357.6C157.563 363.6 159.723 368.52 164.043 372.36C168.483 376.08 174.123 377.94 180.963 377.94C187.803 377.94 193.443 376.02 197.883 372.18C202.323 368.34 204.543 363.42 204.543 357.42ZM180.963 393.42C173.043 393.42 166.563 395.4 161.523 399.36C156.603 403.2 154.143 408.78 154.143 416.1C154.143 422.94 156.543 428.52 161.343 432.84C166.143 437.04 172.683 439.14 180.963 439.14C189.123 439.14 195.543 436.98 200.223 432.66C205.023 428.34 207.423 422.82 207.423 416.1C207.423 408.9 204.963 403.32 200.043 399.36C195.243 395.4 188.883 393.42 180.963 393.42ZM351.728 327.9V453H331.208V398.28H272.348V453H251.828V327.9H272.348V381.54H331.208V327.9H351.728ZM414.742 454.62C406.942 454.62 399.922 453.24 393.682 450.48C387.562 447.6 382.702 443.76 379.102 438.96C375.502 434.04 373.582 428.58 373.342 422.58H394.582C394.942 426.78 396.922 430.32 400.522 433.2C404.242 435.96 408.862 437.34 414.382 437.34C420.142 437.34 424.582 436.26 427.702 434.1C430.942 431.82 432.562 428.94 432.562 425.46C432.562 421.74 430.762 418.98 427.162 417.18C423.682 415.38 418.102 413.4 410.422 411.24C402.982 409.2 396.922 407.22 392.242 405.3C387.562 403.38 383.482 400.44 380.002 396.48C376.642 392.52 374.962 387.3 374.962 380.82C374.962 375.54 376.522 370.74 379.642 366.42C382.762 361.98 387.202 358.5 392.962 355.98C398.842 353.46 405.562 352.2 413.122 352.2C424.402 352.2 433.462 355.08 440.302 360.84C447.262 366.48 450.982 374.22 451.462 384.06H430.942C430.582 379.62 428.782 376.08 425.542 373.44C422.302 370.8 417.922 369.48 412.402 369.48C407.002 369.48 402.862 370.5 399.982 372.54C397.102 374.58 395.662 377.28 395.662 380.64C395.662 383.28 396.622 385.5 398.542 387.3C400.462 389.1 402.802 390.54 405.562 391.62C408.322 392.58 412.402 393.84 417.802 395.4C425.002 397.32 430.882 399.3 435.442 401.34C440.122 403.26 444.142 406.14 447.502 409.98C450.862 413.82 452.602 418.92 452.722 425.28C452.722 430.92 451.162 435.96 448.042 440.4C444.922 444.84 440.482 448.32 434.722 450.84C429.082 453.36 422.422 454.62 414.742 454.62Z" fill="#EF5B5B"/>
<path d="M8.28 420.64V405.16L68.76 318.4H93.6V402.82H110.34V420.64H93.6V448H73.44V420.64H8.28ZM74.34 339.28L31.86 402.82H74.34V339.28ZM149.483 379.42C137.003 373.18 130.763 363.34 130.763 349.9C130.763 343.42 132.383 337.48 135.623 332.08C138.863 326.68 143.723 322.42 150.203 319.3C156.683 316.06 164.603 314.44 173.963 314.44C183.203 314.44 191.063 316.06 197.543 319.3C204.143 322.42 209.063 326.68 212.303 332.08C215.543 337.48 217.163 343.42 217.163 349.9C217.163 356.62 215.423 362.56 211.943 367.72C208.583 372.76 204.083 376.66 198.443 379.42C205.283 381.94 210.683 386.08 214.643 391.84C218.603 397.48 220.583 404.14 220.583 411.82C220.583 419.62 218.603 426.52 214.643 432.52C210.683 438.52 205.163 443.14 198.083 446.38C191.003 449.62 182.963 451.24 173.963 451.24C164.963 451.24 156.923 449.62 149.843 446.38C142.883 443.14 137.423 438.52 133.463 432.52C129.503 426.52 127.523 419.62 127.523 411.82C127.523 404.02 129.503 397.3 133.463 391.66C137.423 386.02 142.763 381.94 149.483 379.42ZM197.543 352.42C197.543 345.7 195.443 340.54 191.243 336.94C187.043 333.34 181.283 331.54 173.963 331.54C166.763 331.54 161.063 333.34 156.863 336.94C152.663 340.54 150.563 345.76 150.563 352.6C150.563 358.6 152.723 363.52 157.043 367.36C161.483 371.08 167.123 372.94 173.963 372.94C180.803 372.94 186.443 371.02 190.883 367.18C195.323 363.34 197.543 358.42 197.543 352.42ZM173.963 388.42C166.043 388.42 159.563 390.4 154.523 394.36C149.603 398.2 147.143 403.78 147.143 411.1C147.143 417.94 149.543 423.52 154.343 427.84C159.143 432.04 165.683 434.14 173.963 434.14C182.123 434.14 188.543 431.98 193.223 427.66C198.023 423.34 200.423 417.82 200.423 411.1C200.423 403.9 197.963 398.32 193.043 394.36C188.243 390.4 181.883 388.42 173.963 388.42ZM344.728 322.9V448H324.208V393.28H265.348V448H244.828V322.9H265.348V376.54H324.208V322.9H344.728ZM407.742 449.62C399.942 449.62 392.922 448.24 386.682 445.48C380.562 442.6 375.702 438.76 372.102 433.96C368.502 429.04 366.582 423.58 366.342 417.58H387.582C387.942 421.78 389.922 425.32 393.522 428.2C397.242 430.96 401.862 432.34 407.382 432.34C413.142 432.34 417.582 431.26 420.702 429.1C423.942 426.82 425.562 423.94 425.562 420.46C425.562 416.74 423.762 413.98 420.162 412.18C416.682 410.38 411.102 408.4 403.422 406.24C395.982 404.2 389.922 402.22 385.242 400.3C380.562 398.38 376.482 395.44 373.002 391.48C369.642 387.52 367.962 382.3 367.962 375.82C367.962 370.54 369.522 365.74 372.642 361.42C375.762 356.98 380.202 353.5 385.962 350.98C391.842 348.46 398.562 347.2 406.122 347.2C417.402 347.2 426.462 350.08 433.302 355.84C440.262 361.48 443.982 369.22 444.462 379.06H423.942C423.582 374.62 421.782 371.08 418.542 368.44C415.302 365.8 410.922 364.48 405.402 364.48C400.002 364.48 395.862 365.5 392.982 367.54C390.102 369.58 388.662 372.28 388.662 375.64C388.662 378.28 389.622 380.5 391.542 382.3C393.462 384.1 395.802 385.54 398.562 386.62C401.322 387.58 405.402 388.84 410.802 390.4C418.002 392.32 423.882 394.3 428.442 396.34C433.122 398.26 437.142 401.14 440.502 404.98C443.862 408.82 445.602 413.92 445.722 420.28C445.722 425.92 444.162 430.96 441.042 435.4C437.922 439.84 433.482 443.32 427.722 445.84C422.082 448.36 415.422 449.62 407.742 449.62Z" fill="black"/>
<path d="M37.055 147.795C39.4817 148.228 41.54 149.507 43.23 151.63C44.92 153.753 45.765 156.158 45.765 158.845C45.765 161.142 45.1583 163.222 43.945 165.085C42.775 166.905 41.0633 168.357 38.81 169.44C36.5567 170.48 33.935 171 30.945 171H12.875V125.825H30.1C33.1767 125.825 35.82 126.345 38.03 127.385C40.24 128.425 41.9083 129.833 43.035 131.61C44.1617 133.343 44.725 135.293 44.725 137.46C44.725 140.06 44.0317 142.227 42.645 143.96C41.2583 145.693 39.395 146.972 37.055 147.795ZM20.285 144.805H29.45C31.8767 144.805 33.7617 144.263 35.105 143.18C36.4917 142.053 37.185 140.45 37.185 138.37C37.185 136.333 36.4917 134.752 35.105 133.625C33.7617 132.455 31.8767 131.87 29.45 131.87H20.285V144.805ZM30.295 164.955C32.8083 164.955 34.78 164.348 36.21 163.135C37.64 161.922 38.355 160.232 38.355 158.065C38.355 155.855 37.5967 154.1 36.08 152.8C34.5633 151.5 32.5483 150.85 30.035 150.85H20.285V164.955H30.295ZM86.2524 135.185V171H78.8424V166.775C77.6724 168.248 76.1341 169.418 74.2274 170.285C72.3641 171.108 70.3707 171.52 68.2474 171.52C65.4307 171.52 62.8957 170.935 60.6424 169.765C58.4324 168.595 56.6774 166.862 55.3774 164.565C54.1207 162.268 53.4924 159.495 53.4924 156.245V135.185H60.8374V155.14C60.8374 158.347 61.6391 160.817 63.2424 162.55C64.8457 164.24 67.034 165.085 69.8074 165.085C72.5807 165.085 74.7691 164.24 76.3724 162.55C78.0191 160.817 78.8424 158.347 78.8424 155.14V135.185H86.2524ZM99.7993 130.44C98.456 130.44 97.3293 129.985 96.4193 129.075C95.5093 128.165 95.0543 127.038 95.0543 125.695C95.0543 124.352 95.5093 123.225 96.4193 122.315C97.3293 121.405 98.456 120.95 99.7993 120.95C101.099 120.95 102.204 121.405 103.114 122.315C104.024 123.225 104.479 124.352 104.479 125.695C104.479 127.038 104.024 128.165 103.114 129.075C102.204 129.985 101.099 130.44 99.7993 130.44ZM103.439 135.185V171H96.0293V135.185H103.439ZM120.578 122.9V171H113.168V122.9H120.578ZM127.837 152.93C127.837 149.333 128.573 146.148 130.047 143.375C131.563 140.602 133.6 138.457 136.157 136.94C138.757 135.38 141.638 134.6 144.802 134.6C147.142 134.6 149.438 135.12 151.692 136.16C153.988 137.157 155.808 138.5 157.152 140.19V122.9H164.627V171H157.152V165.605C155.938 167.338 154.248 168.768 152.082 169.895C149.958 171.022 147.51 171.585 144.737 171.585C141.617 171.585 138.757 170.805 136.157 169.245C133.6 167.642 131.563 165.432 130.047 162.615C128.573 159.755 127.837 156.527 127.837 152.93ZM157.152 153.06C157.152 150.59 156.632 148.445 155.592 146.625C154.595 144.805 153.273 143.418 151.627 142.465C149.98 141.512 148.203 141.035 146.297 141.035C144.39 141.035 142.613 141.512 140.967 142.465C139.32 143.375 137.977 144.74 136.937 146.56C135.94 148.337 135.442 150.46 135.442 152.93C135.442 155.4 135.94 157.567 136.937 159.43C137.977 161.293 139.32 162.723 140.967 163.72C142.657 164.673 144.433 165.15 146.297 165.15C148.203 165.15 149.98 164.673 151.627 163.72C153.273 162.767 154.595 161.38 155.592 159.56C156.632 157.697 157.152 155.53 157.152 153.06ZM223.484 135.185L201.514 187.835H193.844L201.124 170.415L187.019 135.185H195.274L205.349 162.485L215.814 135.185H223.484ZM244.611 171.585C241.231 171.585 238.176 170.827 235.446 169.31C232.716 167.75 230.571 165.583 229.011 162.81C227.451 159.993 226.671 156.743 226.671 153.06C226.671 149.42 227.473 146.192 229.076 143.375C230.68 140.558 232.868 138.392 235.641 136.875C238.415 135.358 241.513 134.6 244.936 134.6C248.36 134.6 251.458 135.358 254.231 136.875C257.005 138.392 259.193 140.558 260.796 143.375C262.4 146.192 263.201 149.42 263.201 153.06C263.201 156.7 262.378 159.928 260.731 162.745C259.085 165.562 256.831 167.75 253.971 169.31C251.155 170.827 248.035 171.585 244.611 171.585ZM244.611 165.15C246.518 165.15 248.295 164.695 249.941 163.785C251.631 162.875 252.996 161.51 254.036 159.69C255.076 157.87 255.596 155.66 255.596 153.06C255.596 150.46 255.098 148.272 254.101 146.495C253.105 144.675 251.783 143.31 250.136 142.4C248.49 141.49 246.713 141.035 244.806 141.035C242.9 141.035 241.123 141.49 239.476 142.4C237.873 143.31 236.595 144.675 235.641 146.495C234.688 148.272 234.211 150.46 234.211 153.06C234.211 156.917 235.186 159.907 237.136 162.03C239.13 164.11 241.621 165.15 244.611 165.15ZM302.961 135.185V171H295.551V166.775C294.381 168.248 292.843 169.418 290.936 170.285C289.073 171.108 287.08 171.52 284.956 171.52C282.14 171.52 279.605 170.935 277.351 169.765C275.141 168.595 273.386 166.862 272.086 164.565C270.83 162.268 270.201 159.495 270.201 156.245V135.185H277.546V155.14C277.546 158.347 278.348 160.817 279.951 162.55C281.555 164.24 283.743 165.085 286.516 165.085C289.29 165.085 291.478 164.24 293.081 162.55C294.728 160.817 295.551 158.347 295.551 155.14V135.185H302.961ZM320.148 140.385C321.232 138.565 322.662 137.157 324.438 136.16C326.258 135.12 328.403 134.6 330.873 134.6V142.27H328.988C326.085 142.27 323.875 143.007 322.358 144.48C320.885 145.953 320.148 148.51 320.148 152.15V171H312.738V135.185H320.148V140.385ZM352.099 152.93C352.099 149.333 352.836 146.148 354.309 143.375C355.826 140.602 357.863 138.457 360.419 136.94C363.019 135.38 365.901 134.6 369.064 134.6C371.404 134.6 373.701 135.12 375.954 136.16C378.251 137.157 380.071 138.5 381.414 140.19V122.9H388.889V171H381.414V165.605C380.201 167.338 378.511 168.768 376.344 169.895C374.221 171.022 371.773 171.585 368.999 171.585C365.879 171.585 363.019 170.805 360.419 169.245C357.863 167.642 355.826 165.432 354.309 162.615C352.836 159.755 352.099 156.527 352.099 152.93ZM381.414 153.06C381.414 150.59 380.894 148.445 379.854 146.625C378.858 144.805 377.536 143.418 375.889 142.465C374.243 141.512 372.466 141.035 370.559 141.035C368.653 141.035 366.876 141.512 365.229 142.465C363.583 143.375 362.239 144.74 361.199 146.56C360.203 148.337 359.704 150.46 359.704 152.93C359.704 155.4 360.203 157.567 361.199 159.43C362.239 161.293 363.583 162.723 365.229 163.72C366.919 164.673 368.696 165.15 370.559 165.15C372.466 165.15 374.243 164.673 375.889 163.72C377.536 162.767 378.858 161.38 379.854 159.56C380.894 157.697 381.414 155.53 381.414 153.06ZM406.032 140.385C407.115 138.565 408.545 137.157 410.322 136.16C412.142 135.12 414.287 134.6 416.757 134.6V142.27H414.872C411.969 142.27 409.759 143.007 408.242 144.48C406.769 145.953 406.032 148.51 406.032 152.15V171H398.622V135.185H406.032V140.385ZM456.393 152.215C456.393 153.558 456.307 154.772 456.133 155.855H428.768C428.985 158.715 430.047 161.012 431.953 162.745C433.86 164.478 436.2 165.345 438.973 165.345C442.96 165.345 445.777 163.677 447.423 160.34H455.418C454.335 163.633 452.363 166.342 449.503 168.465C446.687 170.545 443.177 171.585 438.973 171.585C435.55 171.585 432.473 170.827 429.743 169.31C427.057 167.75 424.933 165.583 423.373 162.81C421.857 159.993 421.098 156.743 421.098 153.06C421.098 149.377 421.835 146.148 423.308 143.375C424.825 140.558 426.927 138.392 429.613 136.875C432.343 135.358 435.463 134.6 438.973 134.6C442.353 134.6 445.365 135.337 448.008 136.81C450.652 138.283 452.71 140.363 454.183 143.05C455.657 145.693 456.393 148.748 456.393 152.215ZM448.658 149.875C448.615 147.145 447.64 144.957 445.733 143.31C443.827 141.663 441.465 140.84 438.648 140.84C436.092 140.84 433.903 141.663 432.083 143.31C430.263 144.913 429.18 147.102 428.833 149.875H448.658ZM461.216 152.93C461.216 149.333 461.952 146.148 463.426 143.375C464.942 140.602 466.979 138.457 469.536 136.94C472.136 135.38 474.996 134.6 478.116 134.6C480.932 134.6 483.381 135.163 485.461 136.29C487.584 137.373 489.274 138.738 490.531 140.385V135.185H498.006V171H490.531V165.67C489.274 167.36 487.562 168.768 485.396 169.895C483.229 171.022 480.759 171.585 477.986 171.585C474.909 171.585 472.092 170.805 469.536 169.245C466.979 167.642 464.942 165.432 463.426 162.615C461.952 159.755 461.216 156.527 461.216 152.93ZM490.531 153.06C490.531 150.59 490.011 148.445 488.971 146.625C487.974 144.805 486.652 143.418 485.006 142.465C483.359 141.512 481.582 141.035 479.676 141.035C477.769 141.035 475.992 141.512 474.346 142.465C472.699 143.375 471.356 144.74 470.316 146.56C469.319 148.337 468.821 150.46 468.821 152.93C468.821 155.4 469.319 157.567 470.316 159.43C471.356 161.293 472.699 162.723 474.346 163.72C476.036 164.673 477.812 165.15 479.676 165.15C481.582 165.15 483.359 164.673 485.006 163.72C486.652 162.767 487.974 161.38 488.971 159.56C490.011 157.697 490.531 155.53 490.531 153.06ZM551.093 134.6C553.91 134.6 556.423 135.185 558.633 136.355C560.887 137.525 562.642 139.258 563.898 141.555C565.198 143.852 565.848 146.625 565.848 149.875V171H558.503V150.98C558.503 147.773 557.702 145.325 556.098 143.635C554.495 141.902 552.307 141.035 549.533 141.035C546.76 141.035 544.55 141.902 542.903 143.635C541.3 145.325 540.498 147.773 540.498 150.98V171H533.153V150.98C533.153 147.773 532.352 145.325 530.748 143.635C529.145 141.902 526.957 141.035 524.183 141.035C521.41 141.035 519.2 141.902 517.553 143.635C515.95 145.325 515.148 147.773 515.148 150.98V171H507.738V135.185H515.148V139.28C516.362 137.807 517.9 136.658 519.763 135.835C521.627 135.012 523.62 134.6 525.743 134.6C528.603 134.6 531.16 135.207 533.413 136.42C535.667 137.633 537.4 139.388 538.613 141.685C539.697 139.518 541.387 137.807 543.683 136.55C545.98 135.25 548.45 134.6 551.093 134.6ZM21.52 239.23V259.055C21.52 260.398 21.8233 261.373 22.43 261.98C23.08 262.543 24.1633 262.825 25.68 262.825H30.23V269H24.38C21.0433 269 18.4867 268.22 16.71 266.66C14.9333 265.1 14.045 262.565 14.045 259.055V239.23H9.82V233.185H14.045V224.28H21.52V233.185H30.23V239.23H21.52ZM69.8846 250.215C69.8846 251.558 69.7979 252.772 69.6246 253.855H42.2596C42.4762 256.715 43.5379 259.012 45.4446 260.745C47.3512 262.478 49.6912 263.345 52.4646 263.345C56.4512 263.345 59.2679 261.677 60.9146 258.34H68.9096C67.8262 261.633 65.8546 264.342 62.9946 266.465C60.1779 268.545 56.6679 269.585 52.4646 269.585C49.0412 269.585 45.9646 268.827 43.2346 267.31C40.5479 265.75 38.4246 263.583 36.8646 260.81C35.3479 257.993 34.5896 254.743 34.5896 251.06C34.5896 247.377 35.3262 244.148 36.7996 241.375C38.3162 238.558 40.4179 236.392 43.1046 234.875C45.8346 233.358 48.9546 232.6 52.4646 232.6C55.8446 232.6 58.8562 233.337 61.4996 234.81C64.1429 236.283 66.2012 238.363 67.6746 241.05C69.1479 243.693 69.8846 246.748 69.8846 250.215ZM62.1496 247.875C62.1062 245.145 61.1312 242.957 59.2246 241.31C57.3179 239.663 54.9562 238.84 52.1396 238.84C49.5829 238.84 47.3946 239.663 45.5746 241.31C43.7546 242.913 42.6712 245.102 42.3246 247.875H62.1496ZM74.7068 250.93C74.7068 247.333 75.4434 244.148 76.9168 241.375C78.4334 238.602 80.4701 236.457 83.0268 234.94C85.6268 233.38 88.4868 232.6 91.6068 232.6C94.4234 232.6 96.8718 233.163 98.9518 234.29C101.075 235.373 102.765 236.738 104.022 238.385V233.185H111.497V269H104.022V263.67C102.765 265.36 101.053 266.768 98.8868 267.895C96.7201 269.022 94.2501 269.585 91.4768 269.585C88.4001 269.585 85.5834 268.805 83.0268 267.245C80.4701 265.642 78.4334 263.432 76.9168 260.615C75.4434 257.755 74.7068 254.527 74.7068 250.93ZM104.022 251.06C104.022 248.59 103.502 246.445 102.462 244.625C101.465 242.805 100.143 241.418 98.4968 240.465C96.8501 239.512 95.0734 239.035 93.1668 239.035C91.2601 239.035 89.4834 239.512 87.8368 240.465C86.1901 241.375 84.8468 242.74 83.8068 244.56C82.8101 246.337 82.3118 248.46 82.3118 250.93C82.3118 253.4 82.8101 255.567 83.8068 257.43C84.8468 259.293 86.1901 260.723 87.8368 261.72C89.5268 262.673 91.3034 263.15 93.1668 263.15C95.0734 263.15 96.8501 262.673 98.4968 261.72C100.143 260.767 101.465 259.38 102.462 257.56C103.502 255.697 104.022 253.53 104.022 251.06ZM164.584 232.6C167.401 232.6 169.914 233.185 172.124 234.355C174.378 235.525 176.133 237.258 177.389 239.555C178.689 241.852 179.339 244.625 179.339 247.875V269H171.994V248.98C171.994 245.773 171.193 243.325 169.589 241.635C167.986 239.902 165.798 239.035 163.024 239.035C160.251 239.035 158.041 239.902 156.394 241.635C154.791 243.325 153.989 245.773 153.989 248.98V269H146.644V248.98C146.644 245.773 145.843 243.325 144.239 241.635C142.636 239.902 140.448 239.035 137.674 239.035C134.901 239.035 132.691 239.902 131.044 241.635C129.441 243.325 128.639 245.773 128.639 248.98V269H121.229V233.185H128.639V237.28C129.853 235.807 131.391 234.658 133.254 233.835C135.118 233.012 137.111 232.6 139.234 232.6C142.094 232.6 144.651 233.207 146.904 234.42C149.158 235.633 150.891 237.388 152.104 239.685C153.188 237.518 154.878 235.807 157.174 234.55C159.471 233.25 161.941 232.6 164.584 232.6ZM209.423 228.44C208.08 228.44 206.953 227.985 206.043 227.075C205.133 226.165 204.678 225.038 204.678 223.695C204.678 222.352 205.133 221.225 206.043 220.315C206.953 219.405 208.08 218.95 209.423 218.95C210.723 218.95 211.828 219.405 212.738 220.315C213.648 221.225 214.103 222.352 214.103 223.695C214.103 225.038 213.648 226.165 212.738 227.075C211.828 227.985 210.723 228.44 209.423 228.44ZM213.063 233.185V269H205.653V233.185H213.063ZM240.862 232.6C243.679 232.6 246.192 233.185 248.402 234.355C250.655 235.525 252.41 237.258 253.667 239.555C254.924 241.852 255.552 244.625 255.552 247.875V269H248.207V248.98C248.207 245.773 247.405 243.325 245.802 241.635C244.199 239.902 242.01 239.035 239.237 239.035C236.464 239.035 234.254 239.902 232.607 241.635C231.004 243.325 230.202 245.773 230.202 248.98V269H222.792V233.185H230.202V237.28C231.415 235.807 232.954 234.658 234.817 233.835C236.724 233.012 238.739 232.6 240.862 232.6ZM289.299 220.9V269H281.889V220.9H289.299ZM331.852 250.215C331.852 251.558 331.766 252.772 331.592 253.855H304.227C304.444 256.715 305.506 259.012 307.412 260.745C309.319 262.478 311.659 263.345 314.432 263.345C318.419 263.345 321.236 261.677 322.882 258.34H330.877C329.794 261.633 327.822 264.342 324.962 266.465C322.146 268.545 318.636 269.585 314.432 269.585C311.009 269.585 307.932 268.827 305.202 267.31C302.516 265.75 300.392 263.583 298.832 260.81C297.316 257.993 296.557 254.743 296.557 251.06C296.557 247.377 297.294 244.148 298.767 241.375C300.284 238.558 302.386 236.392 305.072 234.875C307.802 233.358 310.922 232.6 314.432 232.6C317.812 232.6 320.824 233.337 323.467 234.81C326.111 236.283 328.169 238.363 329.642 241.05C331.116 243.693 331.852 246.748 331.852 250.215ZM324.117 247.875C324.074 245.145 323.099 242.957 321.192 241.31C319.286 239.663 316.924 238.84 314.107 238.84C311.551 238.84 309.362 239.663 307.542 241.31C305.722 242.913 304.639 245.102 304.292 247.875H324.117ZM352.145 269.585C349.328 269.585 346.793 269.087 344.54 268.09C342.33 267.05 340.575 265.663 339.275 263.93C337.975 262.153 337.281 260.182 337.195 258.015H344.865C344.995 259.532 345.71 260.81 347.01 261.85C348.353 262.847 350.021 263.345 352.015 263.345C354.095 263.345 355.698 262.955 356.825 262.175C357.995 261.352 358.58 260.312 358.58 259.055C358.58 257.712 357.93 256.715 356.63 256.065C355.373 255.415 353.358 254.7 350.585 253.92C347.898 253.183 345.71 252.468 344.02 251.775C342.33 251.082 340.856 250.02 339.6 248.59C338.386 247.16 337.78 245.275 337.78 242.935C337.78 241.028 338.343 239.295 339.47 237.735C340.596 236.132 342.2 234.875 344.28 233.965C346.403 233.055 348.83 232.6 351.56 232.6C355.633 232.6 358.905 233.64 361.375 235.72C363.888 237.757 365.231 240.552 365.405 244.105H357.995C357.865 242.502 357.215 241.223 356.045 240.27C354.875 239.317 353.293 238.84 351.3 238.84C349.35 238.84 347.855 239.208 346.815 239.945C345.775 240.682 345.255 241.657 345.255 242.87C345.255 243.823 345.601 244.625 346.295 245.275C346.988 245.925 347.833 246.445 348.83 246.835C349.826 247.182 351.3 247.637 353.25 248.2C355.85 248.893 357.973 249.608 359.62 250.345C361.31 251.038 362.761 252.078 363.975 253.465C365.188 254.852 365.816 256.693 365.86 258.99C365.86 261.027 365.296 262.847 364.17 264.45C363.043 266.053 361.44 267.31 359.36 268.22C357.323 269.13 354.918 269.585 352.145 269.585ZM386.866 269.585C384.05 269.585 381.515 269.087 379.261 268.09C377.051 267.05 375.296 265.663 373.996 263.93C372.696 262.153 372.003 260.182 371.916 258.015H379.586C379.716 259.532 380.431 260.81 381.731 261.85C383.075 262.847 384.743 263.345 386.736 263.345C388.816 263.345 390.42 262.955 391.546 262.175C392.716 261.352 393.301 260.312 393.301 259.055C393.301 257.712 392.651 256.715 391.351 256.065C390.095 255.415 388.08 254.7 385.306 253.92C382.62 253.183 380.431 252.468 378.741 251.775C377.051 251.082 375.578 250.02 374.321 248.59C373.108 247.16 372.501 245.275 372.501 242.935C372.501 241.028 373.065 239.295 374.191 237.735C375.318 236.132 376.921 234.875 379.001 233.965C381.125 233.055 383.551 232.6 386.281 232.6C390.355 232.6 393.626 233.64 396.096 235.72C398.61 237.757 399.953 240.552 400.126 244.105H392.716C392.586 242.502 391.936 241.223 390.766 240.27C389.596 239.317 388.015 238.84 386.021 238.84C384.071 238.84 382.576 239.208 381.536 239.945C380.496 240.682 379.976 241.657 379.976 242.87C379.976 243.823 380.323 244.625 381.016 245.275C381.71 245.925 382.555 246.445 383.551 246.835C384.548 247.182 386.021 247.637 387.971 248.2C390.571 248.893 392.695 249.608 394.341 250.345C396.031 251.038 397.483 252.078 398.696 253.465C399.91 254.852 400.538 256.693 400.581 258.99C400.581 261.027 400.018 262.847 398.891 264.45C397.765 266.053 396.161 267.31 394.081 268.22C392.045 269.13 389.64 269.585 386.866 269.585ZM434.118 239.23V259.055C434.118 260.398 434.421 261.373 435.028 261.98C435.678 262.543 436.761 262.825 438.278 262.825H442.828V269H436.978C433.641 269 431.084 268.22 429.308 266.66C427.531 265.1 426.643 262.565 426.643 259.055V239.23H422.418V233.185H426.643V224.28H434.118V233.185H442.828V239.23H434.118ZM468.182 232.6C470.912 232.6 473.339 233.185 475.462 234.355C477.629 235.525 479.319 237.258 480.532 239.555C481.789 241.852 482.417 244.625 482.417 247.875V269H475.072V248.98C475.072 245.773 474.271 243.325 472.667 241.635C471.064 239.902 468.876 239.035 466.102 239.035C463.329 239.035 461.119 239.902 459.472 241.635C457.869 243.325 457.067 245.773 457.067 248.98V269H449.657V220.9H457.067V237.345C458.324 235.828 459.906 234.658 461.812 233.835C463.762 233.012 465.886 232.6 468.182 232.6ZM489.399 250.93C489.399 247.333 490.136 244.148 491.609 241.375C493.126 238.602 495.162 236.457 497.719 234.94C500.319 233.38 503.179 232.6 506.299 232.6C509.116 232.6 511.564 233.163 513.644 234.29C515.767 235.373 517.457 236.738 518.714 238.385V233.185H526.189V269H518.714V263.67C517.457 265.36 515.746 266.768 513.579 267.895C511.412 269.022 508.942 269.585 506.169 269.585C503.092 269.585 500.276 268.805 497.719 267.245C495.162 265.642 493.126 263.432 491.609 260.615C490.136 257.755 489.399 254.527 489.399 250.93ZM518.714 251.06C518.714 248.59 518.194 246.445 517.154 244.625C516.157 242.805 514.836 241.418 513.189 240.465C511.542 239.512 509.766 239.035 507.859 239.035C505.952 239.035 504.176 239.512 502.529 240.465C500.882 241.375 499.539 242.74 498.499 244.56C497.502 246.337 497.004 248.46 497.004 250.93C497.004 253.4 497.502 255.567 498.499 257.43C499.539 259.293 500.882 260.723 502.529 261.72C504.219 262.673 505.996 263.15 507.859 263.15C509.766 263.15 511.542 262.673 513.189 261.72C514.836 260.767 516.157 259.38 517.154 257.56C518.194 255.697 518.714 253.53 518.714 251.06ZM553.992 232.6C556.809 232.6 559.322 233.185 561.532 234.355C563.785 235.525 565.54 237.258 566.797 239.555C568.054 241.852 568.682 244.625 568.682 247.875V269H561.337V248.98C561.337 245.773 560.535 243.325 558.932 241.635C557.329 239.902 555.14 239.035 552.367 239.035C549.594 239.035 547.384 239.902 545.737 241.635C544.134 243.325 543.332 245.773 543.332 248.98V269H535.922V233.185H543.332V237.28C544.545 235.807 546.084 234.658 547.947 233.835C549.854 233.012 551.869 232.6 553.992 232.6Z" fill="black"/>
<rect x="8" y="68" width="228" height="15" fill="#EF5B5B"/>
<path d="M23.675 74.675H40.925V83H13.175V30.65H23.675V74.675ZM52.9238 36.5C51.0738 36.5 49.5238 35.925 48.2738 34.775C47.0738 33.575 46.4738 32.1 46.4738 30.35C46.4738 28.6 47.0738 27.15 48.2738 26C49.5238 24.8 51.0738 24.2 52.9238 24.2C54.7738 24.2 56.2988 24.8 57.4988 26C58.7488 27.15 59.3738 28.6 59.3738 30.35C59.3738 32.1 58.7488 33.575 57.4988 34.775C56.2988 35.925 54.7738 36.5 52.9238 36.5ZM58.0988 41.45V83H47.5988V41.45H58.0988ZM87.5229 50.075H80.2479V83H69.5979V50.075H64.8729V41.45H69.5979V39.35C69.5979 34.25 71.0479 30.5 73.9479 28.1C76.8479 25.7 81.2229 24.575 87.0729 24.725V33.575C84.5229 33.525 82.7479 33.95 81.7479 34.85C80.7479 35.75 80.2479 37.375 80.2479 39.725V41.45H87.5229V50.075ZM106.552 50.075V70.175C106.552 71.575 106.877 72.6 107.527 73.25C108.227 73.85 109.377 74.15 110.977 74.15H115.852V83H109.252C100.402 83 95.9773 78.7 95.9773 70.1V50.075H91.0273V41.45H95.9773V31.175H106.552V41.45H115.852V50.075H106.552ZM159.726 83.675C155.726 83.675 152.126 82.8 148.926 81.05C145.726 79.25 143.201 76.725 141.351 73.475C139.551 70.225 138.651 66.475 138.651 62.225C138.651 57.975 139.576 54.225 141.426 50.975C143.326 47.725 145.901 45.225 149.151 43.475C152.401 41.675 156.026 40.775 160.026 40.775C164.026 40.775 167.651 41.675 170.901 43.475C174.151 45.225 176.701 47.725 178.551 50.975C180.451 54.225 181.401 57.975 181.401 62.225C181.401 66.475 180.426 70.225 178.476 73.475C176.576 76.725 173.976 79.25 170.676 81.05C167.426 82.8 163.776 83.675 159.726 83.675ZM159.726 74.525C161.626 74.525 163.401 74.075 165.051 73.175C166.751 72.225 168.101 70.825 169.101 68.975C170.101 67.125 170.601 64.875 170.601 62.225C170.601 58.275 169.551 55.25 167.451 53.15C165.401 51 162.876 49.925 159.876 49.925C156.876 49.925 154.351 51 152.301 53.15C150.301 55.25 149.301 58.275 149.301 62.225C149.301 66.175 150.276 69.225 152.226 71.375C154.226 73.475 156.726 74.525 159.726 74.525ZM208.153 50.075H200.878V83H190.228V50.075H185.503V41.45H190.228V39.35C190.228 34.25 191.678 30.5 194.578 28.1C197.478 25.7 201.853 24.575 207.703 24.725V33.575C205.153 33.525 203.378 33.95 202.378 34.85C201.378 35.75 200.878 37.375 200.878 39.725V41.45H208.153V50.075ZM234.007 50.075H226.732V83H216.082V50.075H211.357V41.45H216.082V39.35C216.082 34.25 217.532 30.5 220.432 28.1C223.332 25.7 227.707 24.575 233.557 24.725V33.575C231.007 33.525 229.232 33.95 228.232 34.85C227.232 35.75 226.732 37.375 226.732 39.725V41.45H234.007V50.075ZM281.708 40.85C286.658 40.85 290.658 42.425 293.708 45.575C296.758 48.675 298.283 53.025 298.283 58.625V83H287.783V60.05C287.783 56.75 286.958 54.225 285.308 52.475C283.658 50.675 281.408 49.775 278.558 49.775C275.658 49.775 273.358 50.675 271.658 52.475C270.008 54.225 269.183 56.75 269.183 60.05V83H258.683V41.45H269.183V46.625C270.583 44.825 272.358 43.425 274.508 42.425C276.708 41.375 279.108 40.85 281.708 40.85ZM326.718 83.675C322.718 83.675 319.118 82.8 315.918 81.05C312.718 79.25 310.193 76.725 308.343 73.475C306.543 70.225 305.643 66.475 305.643 62.225C305.643 57.975 306.568 54.225 308.418 50.975C310.318 47.725 312.893 45.225 316.143 43.475C319.393 41.675 323.018 40.775 327.018 40.775C331.018 40.775 334.643 41.675 337.893 43.475C341.143 45.225 343.693 47.725 345.543 50.975C347.443 54.225 348.393 57.975 348.393 62.225C348.393 66.475 347.418 70.225 345.468 73.475C343.568 76.725 340.968 79.25 337.668 81.05C334.418 82.8 330.768 83.675 326.718 83.675ZM326.718 74.525C328.618 74.525 330.393 74.075 332.043 73.175C333.743 72.225 335.093 70.825 336.093 68.975C337.093 67.125 337.593 64.875 337.593 62.225C337.593 58.275 336.543 55.25 334.443 53.15C332.393 51 329.868 49.925 326.868 49.925C323.868 49.925 321.343 51 319.293 53.15C317.293 55.25 316.293 58.275 316.293 62.225C316.293 66.175 317.268 69.225 319.218 71.375C321.218 73.475 323.718 74.525 326.718 74.525ZM413.695 41.45L401.545 83H390.22L382.645 53.975L375.07 83H363.67L351.445 41.45H362.095L369.445 73.1L377.395 41.45H388.495L396.295 73.025L403.645 41.45H413.695Z" fill="black"/>
</svg>
